<svg xmlns="http://www.w3.org/2000/svg" viewBox="0 0 857.2 643.1">
  <path fill="#472572" d="M668.6,1.6c4.7,1.8,8,5.1,11,9,11.9,15.9,22.1,32.6,32.5,49.5,5.7,9.2,12,18.9,16.1,28.9,8.9,23.1,17.2,46.4,25.2,69.7,2.7,7.3,4.8,14.8,7.7,22.1,4.8-.5,9.7-.6,14.5-.2,7,.6,14.8,1.5,21.1,4.9,4.7,2.6,9,6.7,11.8,11.2,4,6.7,3.8,15.2.4,22.1-4.9,10.1-12.4,16.9-20.3,24.5,13.4,23,27,45.9,40.4,68.9,3.9,6.9,8.3,12.8,10.5,20.4,7.1,24.2,13.1,48.6,16.3,73.6.8,7.1,1.8,14.6,1.2,21.7-.5,4.7-1.8,9.3-5,13-5.5,6.3-14.7,8.9-22.5,5.8-5.5-2-9-6-12.5-10.5-14.1-18.4-27.2-37.7-39.9-57.1-5.5-8.6-11.1-16.8-14.5-26.5-2.8-7.5-4.6-15.3-7.2-22.9-4.7,4.2-9.5,8.3-14.6,11.9-25.2,18.6-50.3,37.1-76.1,54.9-11.8,8.4-23.8,16.4-35.6,24.7,24.3,13.9,48.8,27.7,72.9,42,9.5,5.4,11.7,18.3,7,27.6-2.7,4.9-7,7.6-11.7,10.3-22.7,12.6-45.5,25.1-68.1,37.8-6.8,3.8-13.2,7.6-21.1,9-11,2.5-21.7-.3-32.7-2-38.6-6.4-77.2-13.1-115.9-19.2-3.4-.5-6.9-1.4-10.3-1.5-2.7,0-5.6,1.5-8.1,2.6-21.6,10.5-43.4,20.7-65.2,30.8-18.1,8.6-36.8,16.1-55.5,23.5-44.5,18-89.5,35-134.6,51.4-10.3,3.5-19.4,7.6-30.2,8.9-10.2,1.6-20.9-.3-30.4-4.3-14.4-6.3-25.5-18.8-32.1-32.9-1.9-4-3-8.2-4.8-12.3-.7-1.8-2.4-2.2-4-2.9-19.2-7-38.3-14.4-57.4-21.6-5.5-2.2-11.3-3.8-16.5-6.5-8.5-4.8-12.3-15.7-8.9-24.8,1.7-4.4,4.9-7.7,8.8-10.2,13.3-8.7,26.7-17.3,40-26.2-5.4-16.5-11.5-32.8-16.2-49.5-1.9-6.7-2.9-13.8.3-20.3,2.2-4.6,6-7.2,10.2-9.8,9.1-5.6,18-11.4,27-17,7.4-4.5,15.2-7.9,23.9-9,6.1-.8,12.2.4,17.8,2.8,5.2,2.2,9.4,5.8,13.9,9.1,17.7,13.3,35.3,26.7,53,40,5,3.7,9.8,7.7,15,11.1,12.5-8,24.8-16.3,37.1-24.6-4.6-4.1-9.6-7.5-14.5-11.2-33.6-25.1-67-50.4-100.4-75.6-3.5-2.7-6.4-5.9-7.8-10.2-2-6.8-1-15.1,3.6-20.7,2.4-3,5.7-5,8.9-7,10-6,19.8-12.3,29.9-18.1,7.1-4,14.6-7.4,22.6-9.4,12.2-3.4,25.9-2.9,38.4-2.1,18,2.1,35.9,5.2,53.7,8.1,22.8,3.6,45.4,8,68.2,11.9,10.7,1.7,21.3,4.1,32,5.6,1.6-8.3,3.1-16.6,5.4-24.8,1.7-6.1,3.2-13,6.5-18.5,3.4-5.6,8.3-8.9,13.4-12.6,21.2-14.9,42.6-29.5,64.3-43.7,7.6-4.8,15.5-10.5,24.3-12.7,8.1-1.8,16.2-.8,24.1,1.6,13.8,3.9,27.6,7.7,41.2,11.8,2.1.5,4.5,1.3,6.6.5,4.2-1.5,8.2-3.9,12.3-5.7,27-12.6,54.1-25,80.8-38.2,10.5-5.3,23-6.2,34.6-5.4-2.4-5.4-5.3-10.5-8-15.7-8.7-16.7-16.9-33.9-23.5-51.5-7.1-20.8-11.5-43.1-10.9-65.2.2-6.7,1.4-13.7,6.2-18.8,6.1-6.4,16.2-7.8,24.3-4.8Z"/>
  <path fill="#fc1c40" d="M663.8,14.2c1.5,4.6,3.9,8.7,6.4,12.8,5.9,10,12.5,19.6,18.4,29.6,9.8,17.4,18.7,35.1,24.8,54.2,4.5,14.1,9.2,28.2,13.8,42.3,3.4,10.5,6.1,21.2,9.6,31.8-7.3,1.1-14.4,2.8-21.6,4.3-3.7-5.5-6.7-11.4-10-17.1-14.4-26.1-29.1-50.7-40.5-78.5-6.2-14.9-10.1-30.7-12.2-46.7-1-8.9-1.8-18.7-.2-27.6.4-2.7,2-4.5,4.4-5.5,2.3-.9,4.8-.2,7,.5Z"/>
  <path fill="#fd6b7c" d="M663.8,14.2c4.4,2.7,6.8,7.4,9.7,11.5,8.6,12.3,16.5,24.9,24.4,37.6,4.9,7.8,9.8,15.7,14.2,23.8,4.1,7.6,6.5,15.4,9.5,23.5,7.2,19.3,14.1,38.7,20.9,58.1,1.7,4.6,3.4,9.3,4.6,14.1-3.4.7-6.9,1.4-10.3,2-3.5-10.5-6.2-21.2-9.6-31.8-4.5-14.1-9.3-28.1-13.8-42.3-6.1-19.1-15-36.8-24.8-54.2-5.9-10-12.5-19.6-18.4-29.6-2.5-4.1-4.9-8.2-6.4-12.8Z"/>
  <path fill="#fd6b7c" d="M683.9,172.3c2.2.5,4.7.9,6.2,2.8,2.5,3.1,4.1,7,6.2,10.4-9.5,3.4-16.4,11.5-18.5,21.4-2.1,9.8.2,20.9,3.2,30.3,3.5,11.4,9.1,22.1,16.3,31.7,6.5,8.9,15,16,25.2,20.3,7.2,3.1,14.9,4.1,22.8,3.8,1.5,4.8,3.4,9.8,4,14.8.5,3.5-1,6.9-3,9.7-5.9,7.6-16.2,11.5-25.6,9-8.4-2.4-16.1-7.6-22.9-13.1-12.1-9.5-21.9-22.1-29.7-35.2-9.8-17.1-17-35.8-20.9-55.1-1.8-9.1-2.7-18.6-2.3-27.9.3-5.8,1.7-12.2,5.1-17,2.1-2.9,5.2-4.5,8.6-5.4,8.2-2.1,17-2,25.3-.4Z"/>
  <path fill="#fc1c40" d="M632.9,185.1c-1.1,10.3-1.3,20.8,0,31.1,3.5,25.3,12.2,49.9,25.4,71.7,11,18,25.8,34.5,43.9,45.6-5.1,3.9-10.3,7.6-15.5,11.3-17.4,12.7-35.1,25.2-53.2,36.9-12.3,7.8-24.8,15.2-37.2,22.8-15.2,10-31.1,18.9-46.6,28.4-18.5,10.9-37.1,21.9-56.2,31.8-2.5,1.3-5.1,2.4-7.7,3.4,1.8-2.9,3.8-5.5,6.2-8,10.7-11.3,22-22,32.8-33.2,7.5-7.7,16.4-15.5,20.4-25.7,1.7-3.8,2.4-7.1,2-11.3,2.7-1.8,5.3-3.7,7.6-5.9,10-9.8,11.4-27.3,2.9-38.4-5.5-7-13.4-10.5-22-12-20-3.5-40.1-6.8-60.2-9.8-9.1-1.5-18.4-2.6-27.4-4.7,18.7-11.6,38.3-21.8,56.7-34.1,4.8-3.2,9.6-6.4,14.4-9.6,3.9-2.7,7.8-5.5,10.4-9.6,2.6-4.2,4.2-9.3,6.1-13.9,2.1-5.4,4.7-10.4,7.7-15.3,3.4-5.4,7-10.8,12.1-14.9,4.3-3.5,9.2-5.6,14.2-7.8,16.1-7.2,32.1-14.5,48.1-21.9,5-2.4,9.9-4.9,15.1-6.7Z"/>
  <path fill="#fc1c40" d="M696.3,185.5c2,3.2,4,6.4,5.8,9.6-.9,1-1.9,2-2.8,3.1-1.1-.5-2.2-1-3.3-1.4-2.5,2-4.8,3.8-5.8,7-1.1,3.9-4.2,6.6-4.9,10.6-1.7,9.4.8,17.8,4.2,26.4,3.6,9.5,8.8,18.1,14.8,26.2,3.7,4.8,7.8,9.7,12.7,13.2,2.2,1.7,4.8,3.2,6.6,5.3-.2,1.3-.7,2.4-1.1,3.6-10.2-4.3-18.7-11.5-25.2-20.3-7.2-9.6-12.8-20.2-16.3-31.7-3-9.4-5.3-20.5-3.2-30.3,2.1-9.9,8.9-18,18.5-21.4Z"/>
  <path fill="#fd6b7c" d="M780.5,194.7c5.5.7,10.7,2.3,14.9,6.2-5.7.2-11.1.1-16.7.8-9.2,1.1-17.8,3.4-26.8,5.3-7.9,1.8-15.8,3.3-23.6,5.4-7.5,2-14.9,4.6-22.5,6.1-.2-3.4-.1-6.7,2-9.6,3.4-4.6,8.3-6.1,13.6-7.4,11.2-2.5,22.5-4.4,33.7-6.2,8.3-1.4,16.9-1.7,25.3-.6Z"/>
  <path fill="#d3153c" d="M696,196.7c1.1.4,2.2.9,3.3,1.4-3.1,3.8-5.3,8.2-6,13.1-1.1,9.3.3,18.5,3.5,27.2,3.9,10.6,9.8,21.1,18,29,3.7,3.6,8,7.2,12.8,9.2,3.9,1.6,8.3,1.6,12.5,1.7,2.2,4.7,3.7,9.6,5.2,14.6-7.8.3-15.5-.6-22.8-3.8.4-1.2.8-2.4,1.1-3.6-1.8-2.1-4.4-3.7-6.6-5.3-4.9-3.5-9.1-8.4-12.7-13.2-6-8.1-11.3-16.7-14.8-26.2-3.4-8.6-5.9-17.1-4.2-26.4.7-4,3.8-6.7,4.9-10.6,1-3.2,3.3-5,5.8-7Z"/>
  <path fill="#fc1c40" d="M795.4,200.9c1.2,1.6,2.6,3.3,2.8,5.4.3,3.6-1.2,7-3,9.9-4.7,7.3-10.6,13.2-17.2,18.8-10,9.1-20.9,16.4-31.9,24.1-3.4,2.2-7.7,5.7-11.9,5.9-4.7-.8-8.9-5.5-12-8.8-8.8-10.5-15.2-23.9-16.4-37.6,7.7-1.5,15-4.1,22.5-6.1,7.8-2.1,15.7-3.6,23.6-5.4,9-1.9,17.6-4.2,26.8-5.3,5.5-.7,11-.6,16.7-.8Z"/>
  <path fill="#fc1c40" d="M488.1,205.1c6.2,0,12.7,2.7,18.7,4.3,10.5,3.2,21.4,5.6,31.7,9.5-2,2.9-4.1,5.7-6.1,8.6-8.8-2.7-17.5-5.7-26.3-8.5-3.1-.9-6.5-2.5-9.8-2.6-4,.7-7.9,3.4-11.4,5.4,5.4,4.5,11,8.6,16.6,12.8,6.6,5,13.1,10.2,20,14.9-1.1,3.2-2,7.1-4.2,9.7-2.5,2.8-6.3,4.6-9.5,6.5-23.8,14.9-47.7,29.7-71.8,44.2-3,1.8-6.4,3.9-9.9,4.4-3.3.4-6.7,0-10-.4-11.9-1.9-24.1-4.2-35.8-7,1.9-11.1,4.7-22,7.9-32.8.9-2.9,1.9-5.8,4.1-8,2.8-2.8,6.5-5,9.7-7.3,23-16.1,46.5-31.5,69.7-47.3,4.8-3.2,10.5-6.6,16.4-6.6Z"/>
  <path fill="#ffd48b" d="M496.3,216.6c3.3,0,6.7,1.6,9.8,2.6,8.8,2.8,17.5,5.8,26.3,8.5-4.4,6.9-8.2,14.3-10.9,22-6.9-4.7-13.3-9.9-20-14.9-5.6-4.2-11.2-8.3-16.6-12.8,3.5-2,7.4-4.6,11.4-5.4Z"/>
  <path fill="#472572" d="M603.3,229.3c.5,6.9-.7,14-1.1,20.8-.6,9-1.7,18-2.1,27-.2,3.1,2.1,4.1,4.2,5.8,11.6,8.3,22.8,17.2,34.4,25.6,2.5,1.8,4.8,3.8,7,5.8-4.3,3.2-9,5.5-13.8,7.6-2.1.8-4,1.9-6.1.6-4.8-2.7-8.9-6.5-13.4-9.6-6.1-4.3-11.5-9.2-17.9-12.9-.8,11.6-1.5,23.3-2.7,34.9-5.3,3.2-10.8,6.2-16.6,8.5.8-18,2.9-36,4-54-11.7-9.2-24.2-17.6-35.5-27.3,4.9-3.4,10.3-6.4,15.9-8.5,2.6-1,4.7-.1,6.8,1.3,6.3,4.2,11.9,9.5,18.4,13.5.7-10.4,1.5-20.7,2.5-31,5.2-3,10.5-5.7,16-8Z"/>
  <path fill="#ffe054" d="M466.1,233.4c4.9,2.9,9.3,6.5,14,9.7,6.4,4.6,13,8.9,19.2,13.7-1.9.9-3.8,1.9-5.6,3-16.9,9.7-33.8,19.5-50.6,29.4-3.6,2-6.8,4.9-11.2,4.2-8.2-.9-16.2-2.3-24.5-2.8-2.2-.3-4.3-.6-6.5-1,1.6-5.1,3.3-10.2,5.7-14.9,1.8-3.7,5.7-5.8,8.9-8,15.2-10.1,30.5-20.2,45.6-30.4,1.6-1,3.2-2,4.8-2.9Z"/>
  <path fill="#d3153c" d="M778.1,252.1c.6.9,1.2,1.9,1.7,2.8.3,2.3,1,5-.2,7.1-4.7,7.9-7.4,16.3-12.7,23.9-2,2.7-4.7,5-7.2,7.3-1.9-7-5.3-13.8-6.6-21,1.7-3,5.3-5,7.9-7.2,5.8-4.2,11-9.2,17-12.9Z"/>
  <path fill="#fc1c40" d="M779.8,254.9c12.7,21.8,25.6,43.4,38.3,65.2,3.2,5.6,6.9,10.2,8.8,16.2,6.1,20.5,11.1,41.2,14.7,62.3,1.1,6.8,1.7,13.7,2.3,20.6.2,3.7.5,8.2-1.1,11.6-1.4,3.1-4.9,5.2-8.3,4.1-2.2-.8-3.9-3-5.4-4.7-15-19.3-28.9-39.4-42-60-4.2-6.9-8.7-13-11.3-20.8-6.1-18.4-10.6-37.5-16.1-56.2,2.5-2.3,5.2-4.5,7.2-7.3,5.3-7.6,8-16,12.7-23.9,1.3-2.1.6-4.8.2-7.1Z"/>
  <path fill="#d3153c" d="M499.3,256.8l.7.5c-7.9,8.6-18,14.5-27.6,21.2-9.7,6.7-19.7,12.9-29.5,19.5-2.9,1.8-6,3.5-9.6,2.9-5.2-.9-10.1-3.2-15.1-4.9-3.9-1.3-7.3-3.2-10.7-5.4,8.2.5,16.3,1.9,24.5,2.8,4.3.7,7.6-2.3,11.2-4.2,16.8-9.9,33.7-19.7,50.6-29.4,1.8-1.1,3.7-2.1,5.6-3Z"/>
  <path fill="#fc1c40" d="M189.1,292.2c11.8-.9,23.6-.3,35.2,1.7,48.6,7.7,97,16.3,145.3,25.7,24.2,4.4,48.5,8.3,72.8,12.3,30.5,4.6,61.1,9.1,91.5,14.4,4.9,1,9.4,2.4,12.9,6.1,4.4,5.1,5.5,11.3,2.6,17.5-5.2-2-10.5-3.2-15.9-4.2-58-11.4-116.3-22.3-174.3-33.7-24.3-4.2-48.5-9.1-72.8-13.2-21.1-3.8-42.3-7.8-63.4-11.6-10.4-1.7-21-4.1-31.5-3-8.7,1-17.1,2.9-24.7,7.2-13.6,7.6-27,15.6-40.6,23,0,.9.2,1.8.3,2.8-1.5-1.4-4-3.1-4.1-5.3-.2-2.6-.4-6.2,1.9-8.1,2.1-1.9,4.7-3.4,7.1-4.9,10.6-6.4,21.1-13,32-19,8-4.5,16.9-7.1,26-7.9Z"/>
  <path fill="#d3153c" d="M191.3,304.4c10.5-1.2,21.1,1.3,31.5,3,21.1,3.8,42.3,7.8,63.4,11.6,24.3,4.1,48.5,9,72.8,13.2,58,11.4,116.3,22.3,174.3,33.7,5.4,1,10.8,2.2,15.9,4.2-3.3,5.7-8.4,8.2-13.7,11.6-8.9,5.4-17.6,11.1-26.4,16.6-18.6,11.2-36.8,23.1-55.2,34.8-27.4,17.2-54.9,34.3-81.9,52.1-5.5,3.6-10.7,7.2-17.2,8.9-8.3,2.3-17.6.8-24.9-3.8-3-1.9-5.9-4.1-8.7-6.3-10.4-8-21-15.7-31.4-23.6-33.9-25-67.4-50.6-101.2-75.8-20.8-15.7-41.7-31.4-62.5-47.2,0-.9-.2-1.9-.3-2.8,13.7-7.4,27.1-15.4,40.6-23,7.7-4.3,16-6.2,24.7-7.2Z"/>
  <path fill="#d3153c" d="M702.3,333.4c5.6,3.3,11.4,5.5,17.7,7.1-14.4,11.2-29.3,21.6-44.1,32.4-18.8,13.2-37.7,26.4-56.8,39.2-11.2,6.9-22.6,13.4-33.9,20.1-44.1,26.2-88.5,52.1-133.8,76.2-31.5,15.9-63.6,30.7-95.7,45.3-7.9,3.7-16,6.5-24.1,9.9-15.9,6.6-31.9,12.7-47.8,19.2-11.7,4.8-23.5,9.2-35.3,13.7-24.5,9.5-49.1,18.6-74.1,26.9-7.9,2.5-14.9,5.6-23.3,6-13.2,1-26.4-4.2-35.6-13.7-6.9-7.4-11.7-16.8-14.3-26.5,3.9-2.6,7.9-4.9,11.9-7.2,18.7-11,37.4-21.9,56.1-32.8,8.8-5.4,18.2-10.1,26.4-16.2-.3,3-.6,5.9-1.8,8.7-2.7,6.1-5.5,12.2-7.4,18.6,6.6-2.9,12.9-6.4,19.3-9.7,17-8.8,34-17.4,51.1-25.9,8.6-4.4,17.1-9,25.9-13.1,10.8-5.2,21.4-11.6,32.7-15.4,6.3,4.6,12.7,8.6,20.4,10.4,13,3.7,27,.5,38.1-6.9,27.2-17.9,54.8-35.2,82.4-52.6,30.6-18.8,60.6-38.6,91.2-57.2,.4,4.2-.3,7.5-2,11.3-4,10.1-13,17.9-20.4,25.7-10.8,11.2-22.1,21.9-32.8,33.2-2.3,2.4-4.4,5.1-6.2,8,2.6-1,5.2-2.1,7.7-3.4,19.1-9.9,37.7-20.9,56.2-31.8,15.5-9.5,31.4-18.4,46.6-28.4,12.4-7.6,24.9-15,37.2-22.8,18.1-11.6,35.8-24.2,53.2-36.9,5.2-3.7,10.5-7.3,15.5-11.3Z"/>
  <path fill="#fc1c40" d="M101.8,408.5c6.6,1,11.7,5.2,16.9,9.1,22.9,17.1,45.6,34.4,68.4,51.6,2.7,1.9,5.5,3.4,8.9,3,4.5-.6,8.9-4,12.7-6.4,11.9-7.8,23.7-15.6,35.5-23.3,10.4,7.7,20.5,16,30.9,23.7,13.5,9.9,26.7,20.1,40.1,30.1-11.3,3.8-21.9,10.2-32.7,15.4-8.7,4.2-17.3,8.7-25.9,13.1-17.1,8.5-34.1,17.2-51.1,25.9-6.5,3.2-12.7,6.8-19.3,9.7,2-6.4,4.8-12.5,7.4-18.6,1.3-2.8,1.5-5.7,1.8-8.7,1.3-3.6,2.7-6.9,2.8-10.9.1-4.7,0-9.2-3.4-12.9-4.3-5.1-10.1-6.4-16.3-7.7-19.4-3.7-38.8-7.4-58.2-10.8-12.8-2.5-26.3-2.1-39.3-.6-6.5.7-12.6,2.7-18.7,4.6-4.6-12.6-8.7-25.3-13.1-37.9-1.6-4.9-3.3-10-3.9-15.1-.2-1.9-.3-3.7,1-5.3,1.7-1.9,4.2-3.3,6.3-4.7,10-6,19.8-12.2,29.6-18.4,5.8-3.6,12.6-5.9,19.4-4.9Z"/>
  <path fill="#fc1c40" d="M616.1,430.2c4.2,1,8.1,4,11.9,6,22.2,12.5,44.3,24.9,66.3,37.7,4.8,2.3,4,8.2,2.2,12.3-10.1-7.5-21.6-13.6-32.5-20.1-11.9-6.8-23.8-13.5-35.5-20.5-6.7-4.2-13.6-6.4-18.9-12.5,2-1.1,4.2-2.4,6.4-3Z"/>
  <path fill="#d3153c" d="M609.7,433.1c5.3,6.1,12.2,8.4,18.9,12.5,11.8,7,23.6,13.7,35.5,20.5,10.8,6.5,22.4,12.5,32.5,20.1-5.1,3.5-10.7,6.2-16.1,9.3-17.4,9.6-34.6,19.4-52,29-7.6,4.1-13.9,8.8-22.5,10.6-9.7,2.3-19.4-.2-29-1.8-36.6-6-73.2-12.4-109.8-18.4,10.8-6.1,21.6-12.2,32.5-18.1,21.6-11.9,42.8-24.5,64.2-36.8,15.4-8.8,30.1-18.4,45.8-26.8Z"/>
  <path fill="#fc1c40" d="M120.2,504c19.1,3.5,38.1,7.1,57.2,10.8,2.6.5,5.2,1.4,7.8,2.3,0,2.5-.1,5.1-.2,7.7-1.4.8-2.7,1.6-4,2.4-2.4-1.8-4.6-2.9-7.6-3.3-12.6-2.3-25-4.9-37.6-7.3-7-1.3-13.6-2.8-20.6-3.5-8.2-.9-16.7-.5-25,.3-9.4.9-18.2,3.9-26.3,8.6-13.5,7.9-27,15.8-40.7,23.3-2.5,1.4-4.6,3.1-6.7,5-.8-.4-1.6-.8-2.4-1.2,0-2.6-.5-5.9.5-8.3,2.5-2.8,6.3-4.6,9.4-6.6,8.7-5.6,17.5-11.1,26.2-16.9,8.5-5.8,16.6-11.2,27-13,14.1-2.3,29.1-3.1,43.1,0Z"/>
  <path fill="#d3153c" d="M115.1,513c7.1.7,13.7,2.2,20.6,3.5,12.5,2.4,25,5,37.6,7.3,3,.5,5.2,1.6,7.6,3.3-7.1,4.6-14.5,8.7-21.8,13-20.9,12-41.7,24.2-62.3,36.7-1.2.6-2.5,1.4-3.8,1.7-2.2,0-4.5-1-6.6-1.7-19.2-7.1-38.3-14.4-57.5-21.6-4.3-1.5-8.5-2.9-12.5-5.1,2.1-1.9,4.2-3.7,6.7-5,13.7-7.6,27.1-15.5,40.7-23.3,8.1-4.7,17-7.7,26.3-8.6,8.2-.7,16.7-1.1,25-.3Z"/>
</svg>
