<svg xmlns="http://www.w3.org/2000/svg" id="Layer_1" version="1.1" viewBox="0 0 423.9 462.3">
  <!-- Generator: Adobe Illustrator 30.2.1, SVG Export Plug-In . SVG Version: 2.1.1 Build 1)  -->
  <defs>
    <style>
      .st0 {
        fill: #fffeff;
      }

      .st1 {
        fill: #220247;
      }

      .st2 {
        fill: #4d0f8a;
      }

      .st3 {
        fill: #d79af2;
      }

      .st4 {
        fill: #fed638;
      }

      .st5 {
        fill: #932de2;
      }

      .st6 {
        fill: #9634ca;
      }
    </style>
  </defs>
  <path class="st1" d="M76.8,0c6,.2,12-.2,18,.1,3.4.2,6.7,1.5,7.9,5,1.8,5.2,1.4,10.4,5.2,14.9,7.9,9.4,24.7,9.2,32.2-.6,3.7-4.9,3-11.3,5.8-16.2C148.1,0,152.3.1,155.8,0c8,0,16.1,0,24.1,0,3.4.2,7.3.5,9,3.9,2.4,5.2,1.4,10.9,5.3,15.7,8.8,10.6,28.5,9.6,35.8-2.3,2.9-4.3,2.1-9.5,4.2-13.8,1.8-3.2,6.2-3.4,9.5-3.5,8,0,16.1,0,24.1,0,3.8.1,7.8.6,9.5,4.5,1.9,5,1.1,10.9,4.8,15.2,8.2,9.5,25.3,8.7,32.4-1.8,3.2-4.3,2.6-9,4.3-13.7,1.1-2.9,4.1-3.6,6.9-3.9,5.9-.5,12,0,17.9-.2,4.1,0,9-.3,12.9,1.1,3.7,1.4,6.2,5.3,8.5,8.4,5.3.4,12.1.5,16.8,3.4,3.9,2.4,5.4,6.6,8.5,9.4,3.1,1.6,6.7,2.1,9.9,3.2,6.6,2.2,12.7,6.5,17.1,11.9,4.7,5.8,6.3,13.3,6.4,20.6,0,110.3,0,220.7,0,331,0,7.1.6,14.8-1.5,21.5-2,7-6.7,12.4-12.6,16.4-13.9,9.6-28.6,18.1-42.7,27.3-3.9,2.5-7.7,4.7-12.4,5.5-9,1.5-18.7,0-27.8.6-4.4.6-8.6,1.9-13.1,1.8-7.7-.1-15.4.1-23.1,0-4.2-.1-7.4-2.2-11-4.1-3.2,1.7-6.3,3.7-10,4-5,.4-10,0-15,.1-5,0-10,.3-15-.2-4-.4-7-2.9-10.2-5-3.8,2.5-7,5.1-11.8,5.2-8.7.1-17.4.1-26.1,0-4.7,0-8-2.5-11.8-4.9-2.6,1.7-5.4,3.8-8.4,4.5-3.5.7-7.2.4-10.7.5-6.3-.1-12.7.2-19,0-4.8-.2-7.9-2.9-11.6-5.5-3.2,2.4-6.2,4.9-10.4,5.3-4.6.5-9.3.1-13.9.2-4.6,0-9.3.3-13.8-.3-3.8-.6-6.9-2.7-10.1-4.7-3.9,2.4-7.3,4.8-12,4.9-6.7.2-13.4,0-20.1,0-8.8,0-17.9-3.7-23-11-3.5-5-4.1-10.8-5.2-16.6-3.8-1.9-7.5-3.5-10.8-6.3-4.4-3.8-7.5-9.2-9.2-14.8-2.2-6.5-1.3-14.4-1.4-21.3,0-112.2,0-223.8,0-336,0-14.6,11-26.9,24.7-30.8,2.7-.9,6-1.2,8.3-2.8,2.4-2.7,3.7-6.2,6.8-8.2,4.6-3,9.7-2.6,14.5-4.3,2.9-2.3,4.4-6.3,8.1-8.1C66.7-.3,72.3,0,76.8,0Z"/>
  <path class="st2" d="M88.8,2.1c3.2.2,7.8-.3,10.6,1.5,2.7,3.8,2.2,9.6,4,14,1.7,5,6.8,7.7,11.4,9.6,8.8,3.5,19.7,1.2,26-6,4.2-5,3.8-11.4,6.5-16.6,2.9-3.2,9.5-2.4,13.4-2.5,9.6.6,17.9-1.6,26.6,2.2.5,3.8.9,7.8,2,11.5.9,3.4,3.8,6.2,6.5,8.2,10.6,7.2,26.4,6.1,34.5-4.3,4-4.8,3.5-10.9,6.2-15.7,1.6-2.1,5.7-2,8.1-2.2,7.4.1,14.7.2,22.1.2,2.3.2,6.2.2,7.7,2.3,3,4.7,2.2,12.6,6.2,16.8,3.6,3.8,9.1,6,14.2,6.7,8.6,1.3,17.7-3.1,22-10.7,2.3-4.2,2.3-9.3,4.6-13.4,3.1-2.4,8.6-1.8,12.3-1.9,6.7.3,13.7-.3,20.3.8,4.5.6,6.7,6.8,10.5,8.3,4.7,1.5,10.8,1.3,15.5,3.7,4.3,2.1,5.6,8.4,10.2,9.8,5,1.8,10,2.7,14.6,5.5,5.5,3.4,11.5,7.8,14,14,3.5,7.9,2.7,16.8,2.7,25.2-.2,53-.3,106,0,159-.3,16.3,0,32.7-.2,49,.1,36-.2,72-.1,108-.2,7.6.3,15.7-1.3,23.1-1.5,6-6,9.8-10.6,13.5-6.9,5.7-14.6,10-22.1,14.9-8,5.4-16.5,10.1-24.8,15.2-4.8,2.7-12,6-17.5,4.1-1.1-1.6-1.1-4-1.2-5.8,0-4.4,0-8.8-.2-13.2-6.3-.4-12.6-.4-18.8,1,.3,4.7,1.1,9.9,0,14.6-.9,3.4-3.9,5-7.3,5.4-6.9.7-14,.1-20.9.3-4.1-.1-9.2.3-12.3-2.9-3.1-3-4-8.4-5.3-12.4-.8,3.4-1.3,6.9-2.6,10.1-1.7,3.4-5.1,4.9-8.7,5-7,.3-14,0-21,.1-3.8-.1-9.5.2-12.3-2.9-2.9-3.6-4-8.8-5.8-13-.8,3.6-1.2,7.6-2.8,11-1.6,3.2-4.8,4.5-8.2,4.7-6.7.4-13.4,0-20,.1-4.7,0-10.2.4-13.6-3.6-2.7-3.7-3.6-8.9-5.3-13.1-1.1,4.2-1.5,9.1-3.8,12.8-3,4.5-9.7,3.7-14.4,3.8-7.4-.4-15.3.8-22.5-.9-5.6-2.4-7-9.9-8.6-15.2-.8,3.3-1.4,6.9-2.8,10.1-1.7,3.5-5.2,5.5-9.1,5.7-6.7.4-13.4,0-20.1.2-3.6-.2-8.6.1-11-3.1-2.5-3.4-3.4-8.2-4.7-12.3-1.5,4.4-2.7,10-6.5,13-3.3,2.9-8.7,2.4-12.8,2.5-7.4-.2-15.6.6-22.8-1.5-6.9-1.9-12.6-7.4-14.5-14.3-1-3.9-1.4-8-2-12-4.1-1.6-8-2.9-11.4-5.8-3.6-3.1-6.5-7.2-8.4-11.5-1.7-3.9-1.7-7.9-1.8-12.1.1-50.7-.2-101.3,0-152-.3-29.3.2-58.7-.1-88,0-31.7,0-63.3,0-95,.1-6.7-.4-14.4,2.3-20.7,3.9-8.9,12.1-15.9,21.5-18.4,2.5-.8,5.3-1.2,7.6-2.5,2.9-2.2,4.6-6.2,7.7-8.3,4.5-2.9,10.5-2.9,15-5.1,3.6-2.7,4.9-7.2,9.8-8.2,7.5-1.5,15.5-.6,23.1-.8Z"/>
  <path class="st0" d="M70.3,11.6c1.1-.2,2.2-.4,3.3-.6.6,5.6,1.4,11.5,3.3,16.8,1.7,4.6,4.6,8.7,8,12.2,4,4.2,8.8,6.5,13.2,10.3-3.4-1.3-6.7-2.6-10-4-5.8-4-9.8-9.4-13.8-15-2.5-6-4.6-13.1-4-19.7Z"/>
  <path class="st3" d="M73.6,11.1c3.6-.1,7.2,0,10.8.1.7,5.1,1.3,9.9,4,14.3,4.9,8.6,13.9,13.8,23.5,15.6,8.5,1.2,17.3.9,25.2-2.7,7.2-3,13.2-8.3,16.6-15.4,1.7-3.7,1.9-8,3.5-11.6,5.3-.7,10.9-.2,16.2,0,.9,5.2,1.8,10.1,4.6,14.6,4.9,7.8,13.3,12.9,22.2,14.7,14,2.7,30-1.5,38.8-13.2,3.8-4.8,5.2-10.3,6.2-16.2,5.5-.3,10.9-.3,16.4-.1,1.3,5.8,2.3,11.2,5.9,16.2,4.7,6.6,11.7,10.7,19.5,12.5,13.9,3.7,30.2-2.1,38.2-14.2,3-4.4,3.9-9.3,5-14.4,5.2-.3,10.4-.3,15.7,0,.2,5.1.2,10.1-1.5,15-.2.7-.5,1.5-.8,2.2-.3-3.2-1-4.8-3.3-7.1-2.4,8.3-6.5,15.6-13.4,21-8.6,6.5-19.4,10.4-30.2,10.2-11.4.2-22.8-3.7-31.9-10.5-5.9-4.5-9.4-10.4-12.8-16.7-2.3,4.4-4.5,8.6-8,12.1-13.9,14.2-36.6,18.9-54.9,11.4-7.2-2.9-13.8-7.3-18.7-13.3-2.6-3.2-4.5-6.6-6.4-10.2-3.9,7.3-8.5,13.9-15.4,18.6-14.4,9.8-34.1,12.9-50.5,6.5-4.4-3.8-9.2-6.2-13.2-10.3-3.4-3.5-6.3-7.6-8-12.2-2-5.2-2.7-11.2-3.3-16.8Z"/>
  <path class="st5" d="M340.4,21.2c2.2,2.3,3,3.8,3.3,7.1-2.1,6.1-6,10.6-9.8,15.6,6-6.2,12.8-11,20-15.7.6,9.7.3,19.2.3,28.9,0,6.7,0,13.3-.3,20-28,.4-56,.1-84,.2-66,0-132,0-198,0-4,0-7.9,0-11.8-.2-.4-9.5.3-18.8-1-28.3-.5-8.1-.4-16.1-.1-24.2,1.9,0,3.8-.2,5.7-.3.3.9.6,1.9.9,2.8,1.6,7.2,5.7,13.3,11.4,17.9,2.9,2.3,6.1,3.7,9.5,5.2-.5-1.2-1-2.5-1.5-3.7,1.1,0,2.1-.1,3.2-.2,3.3,1.4,6.7,2.7,10,4,16.4,6.4,36.1,3.3,50.5-6.5,6.9-4.7,11.5-11.3,15.4-18.6,1.9,3.6,3.8,7.1,6.4,10.2,5,6,11.5,10.4,18.7,13.3,18.4,7.5,41,2.7,54.9-11.4,3.5-3.6,5.7-7.8,8-12.1,3.5,6.4,6.9,12.3,12.8,16.7,9.1,6.8,20.5,10.7,31.9,10.5,10.8.2,21.6-3.7,30.2-10.2,6.9-5.4,11-12.7,13.4-21Z"/>
  <path class="st6" d="M347.2,24.4h.3c2.5-.2,5-.1,7.4-.1.4,8.9,0,17.9.2,26.8,0,9.4.2,18.8-.1,28.2-7.7.3-15.4,0-23.1.1-80-.1-160,0-240-.1-10.9.2-21.8-.4-32.8-.2-.3-10.1-.2-20.2,0-30.3,1.2,9.4.5,18.8,1,28.3,3.9.1,7.9.2,11.8.2,66,0,132,0,198,0,28-.1,56,.2,84-.2.3-6.7.3-13.3.3-20,0-9.7.3-19.3-.3-28.9-7.2,4.7-14,9.5-20,15.7,3.9-5.1,7.7-9.5,9.8-15.6.3-.7.5-1.5.8-2.2l1.1.3c.6-.7,1.1-1.4,1.7-2Z"/>
  <path class="st1" d="M48.8,24.8h1.2c-.2,11.4,0,22.9,0,34.3,0,8.9.3,17.6-.5,26.5-1-7.9-.5-15.6-.5-23.5,0-12.4,0-24.9,0-37.3Z"/>
  <path class="st0" d="M58.9,24.6c-.3,8.1-.4,16.2.1,24.2-.2,10.1-.3,20.2,0,30.3l-1.2.8c.3-11.3,0-22.6.2-33.8,0-7,.1-14-.2-21-2,0-4,.1-6,.2-.5,9.2-.2,18.5-.3,27.8.1,9.4-.2,18.7.3,28.1l-.9-.2c-.5-18.7,0-37.5-.3-56.2,2.7,0,5.5,0,8.2-.2Z"/>
  <path class="st3" d="M354.9,24.3c3,0,5.9.1,8.8.1.4,7.2.2,14.4.2,21.7-.1,11.7.2,23.4-.2,35.1-5-.3-10-.4-15-.5-84.7,0-169.3,0-254,0-8,0-16-.1-24,.3-6.2.3-12.8.8-19,.1-.6-9.3-.2-18.7-.3-28.1,0-9.3-.2-18.6.3-27.8,2,0,4-.1,6-.2.3,7,.2,14,.2,21,0,11.3.2,22.6-.2,33.8l1.2-.8c10.9-.2,21.8.4,32.8.2,80,.1,160,0,240,.1,7.7,0,15.4.2,23.1-.1.3-9.4,0-18.8.1-28.2,0-8.9.2-17.9-.2-26.8Z"/>
  <path class="st6" d="M50,24.8h.7c.2,18.7-.3,37.5.3,56.2l.9.2c6.2.7,12.7.2,19-.1,8-.4,16-.3,24-.3,84.7,0,169.3,0,254,0,5,0,10,.2,15,.5,0,1.6-.2,3.1-.3,4.7-6.2.3-12.5.2-18.7.2H73.8c-8.2,0-16.2.4-24.4-.5.9-8.9.5-17.6.5-26.5,0-11.4-.1-22.9,0-34.3Z"/>
  <path class="st6" d="M65.5,27.1c3.2.9,6.1,2.2,8.8,4.2,4,5.7,8,11.1,13.8,15-1.1,0-2.1,0-3.2.2.5,1.2,1,2.5,1.5,3.7-3.3-1.5-6.6-2.9-9.5-5.2-5.7-4.6-9.8-10.8-11.4-17.9Z"/>
  <path class="st3" d="M36.1,35.1c-.3,2-.1,4.5-1.1,6.3-1.8,2.6-5.1,4.6-6.4,7.5-1,2.5-1,5.6-1.1,8.2.1,14.3.2,28.6.1,42.9-3.7,1.2-7.5,2.2-11.3,3,.5-4.5.3-9.3.3-13.9,0-10.7,0-21.3,0-32,0-4.8,0-9.4,2.8-13.5,3.8-5.7,10.3-7.9,16.8-8.5Z"/>
  <path class="st6" d="M36.1,35.1c1.9.3,3.7.6,5.6,1,.5,12.7.1,25.3.1,38,0,5.6-.7,12.2,1.4,17.5,1.8,4.8,7,7,11.2,9.5-.7.8-1.3,1.5-2,2.3,0,.6.2,1.2.3,1.9-4.6-.2-9.2-.1-13.9,0-6.8.2-13.1-.5-19.9,1.1-1,.2-2.1.4-3.1.6v-.9c.2-1,.4-2,.5-2.9,3.8-.7,7.6-1.8,11.3-3,.1-14.3,0-28.6-.1-42.9,0-2.7,0-5.7,1.1-8.2,1.4-2.9,4.6-4.9,6.4-7.5.9-1.8.8-4.3,1.1-6.3Z"/>
  <path class="st6" d="M373.9,35.4c2.2-.2,4.3-.4,6.5-.4,0,2.4-1,4.7,1,6.5,3.3,3.5,6.4,6.7,7.3,11.7.6,15.6-.3,31.2.5,46.8v.7c3.5.7,7,1.5,10.5,2.4,0,1.3,0,2.7,0,4-6.2-.5-12.3-.5-18.5-.9-6.5-1.6-13-1.4-19.6-1.2,4.3-.3,8.6-.9,12.8-1.5-2.1-1-4.3-1.9-6.3-3,1.2-3.2,4.5-5.5,5.6-8.7.8-3.1.5-6.5.5-9.7-.4-12-.3-24-.6-36,0-3.6,0-7.2.4-10.7Z"/>
  <path class="st3" d="M380.4,35c4.3.3,8.4,1,11.9,3.6,2.5,1.8,4.7,4.1,6.4,6.7,1.6,7.4,1,14.4,1,21.9,0,12,0,24,0,36-3.5-.9-7-1.7-10.5-2.4v-.7c.5-12,.1-23.9.4-35.9,0-3.7,0-7.3-.8-10.9-.9-5-4-8.1-7.3-11.7-1.9-1.8-1-4.1-1-6.5Z"/>
  <path class="st1" d="M398.8,45.2c2.8,4.4,1.8,10.9,2,15.9.2,98.4,0,196.6.1,295,0,10.3.2,20.6-.2,30.8-18.3,0-36.7.2-55-.4,5.3-1.5,10.6-1,16.1-1,8.8,0,17.5.1,26.3-.4h.9c3.5.4,7.1.4,10.6.3,0-92.7,0-185.6,0-278.3,0-1.3,0-2.7,0-4,0-12,0-24,0-36,0-7.5.7-14.4-1-21.9Z"/>
  <path class="st1" d="M408.2,45.7c1.9,6.5,1.2,12.7,1.3,19.4.1,105.7,0,211.3.1,317-.1,5.9.2,12.1-1,17.9-.9,4.8-5.6,7.8-9.2,10.8-14.4,11-28.3,22.5-43.2,32.8-2.5,1.8-5.4,2.8-8.4,3.7,4.8-4.1,10.2-7,15.3-10.7,5.6-4.1,11.3-7.9,16.5-12.5,8-7,17.5-13.4,24.9-21.1,2.4-2.5,2.3-5.6,2.6-8.9.8-14.3.2-28.6.4-43,0-76,0-152,0-228-.1-22.3.2-44.7-.1-67,0-3.5.2-6.9.6-10.4Z"/>
  <path class="st0" d="M388.8,53.2c.8,3.6.9,7.3.8,10.9-.2,12,0,23.9-.4,35.9-.7-15.6.1-31.2-.5-46.8Z"/>
  <path class="st1" d="M38.8,105.1c4.6-.1,9.2-.2,13.9,0,9.7.4,19.4.2,29.1.1,84.3-.2,168.7-.1,253,0,8.9,0,17.8.3,26.7-.3,6.6-.2,13.1-.3,19.6,1.2-3.8.1-7.6.3-11.4.3-103.7-.1-207.4.1-311-.4-13.3.3-26.6-.5-39.9.1,6.7-1.5,13-.8,19.9-1.1Z"/>
  <path class="st1" d="M15.8,105.9v.9c.4,9.4,0,18.8.1,28.3,0,86.5,0,173.1,0,259.6l-.9,1.7c-.6-7.4-.3-14.9-.4-22.3,0-83.7,0-167.3,0-251,0-5.8-.4-11.5,1.1-17.2Z"/>
  <path class="st0" d="M19,106.2c13.2-.6,26.6.2,39.9-.1,103.6.6,207.3.3,311,.4,3.8,0,7.6-.2,11.4-.3,6.2.5,12.3.5,18.5.9,0,92.7,0,185.6,0,278.3-3.5.1-7.1.1-10.6-.2-.3-69.7-.4-139.4-.4-209.1,0-17,0-34-.1-51,0-5.5.3-10.9-.3-16.4v-.8c-.1,81.3,0,160.6-.3,242.2-.1,5.2.5,10.7-.4,15.8-2.1,7.1-11.5,10.6-13.2,17.6,4.7,0,9.2,0,13.8,1.6-8.8.5-17.5.3-26.3.4-5.5,0-10.8-.4-16.1,1-3.9,1-7,4.5-8,8.3-.7,2.6-.6,5.6-.6,8.2.1,8.4.3,16.9-.1,25.3-5.1.2-10.1,0-15.2.2-1.4.1-3.3,0-4.2,1.3-1.7,3.9-.6,10.3-3.7,13.3-3.2,2.1-8.3,1.7-12,1.8-3.4-.2-8.7.2-11.3-2.5-2.6-3.2-1.3-8.9-3.8-12.1-4.1-2.3-10.4-1.2-14.9-.9-3,3.4-2,8.7-4.2,12.3-1.4,2-3.6,2.6-5.9,3-6.5.7-12.9,0-19.3-.6-1.4-3.2-2.4-6.2-3-9.7-.5-1.8-.7-4.3-2.9-4.9-4.5-1.1-10-.9-14.5.4-.8.2-1.3.7-1.6,1.5-1.2,3.6-1.5,7.3-2.9,10.9-6.1-1-12.5-1.1-18.7-.9-2.6,0-5.1.8-7.5,1.7-2.4-4-2.2-8.2-4.1-12.4-1.2-1.6-3.4-1.6-5.2-1.8-3.4-.2-7.2-.3-10.4.8-2.7,1.8-2.1,6.3-2.2,9.1-.4.8-.9,1.7-1.3,2.5-8.9.4-18.1-.6-26.8,1-1.7-4.4-1.4-9.4-4.3-13-4.5-.7-10-1.3-14.4.4-2.6,2.1-2.1,7.1-2.3,10.1-1.8,1.9-3.2,4.1-6,4.5-5.2.8-10.9.7-16.1.2-2.9-.4-5.1-2-5.9-4.8-1.1-3.1-.8-7.7-3-10.2-4.5-1.8-10.3-.9-14.9-.5-.4.6-.7,1.3-1,1.9-1.5,3.2-1.5,7.3-3.4,10.2-2.2,2.2-6.2,2.3-9.1,2.4-4.8,0-10.5.2-15.1-1.6-3-1.2-4.8-3.5-6.6-6-1.3-7.3-.5-15.2-1.1-22.3l-1.5-.7c-4.4-1.6-8.8-2.1-12.6-5.2-4.3-3.4-6.4-8.1-8-13.2-.1-86.5,0-173.1,0-259.6,0-9.4.2-18.8-.1-28.3,1-.2,2.1-.4,3.1-.6Z"/>
  <path class="st3" d="M388.2,107.9v.8c.6,5.5.3,10.9.3,16.4.2,17,.2,34,.1,51,0,69.7,0,139.4.4,209.1h-.9c-4.5-1.5-9.1-1.7-13.8-1.6,1.7-7,11.1-10.5,13.2-17.6.9-5.1.3-10.6.4-15.8.2-81.5.2-160.9.2-242.2Z"/>
  <path class="st2" d="M61.8,123.2c9-.2,18,.1,27.1,0,5,0,9.7-.5,14.3,1.6-9.8-.8-19.6-.4-29.3-.6-6.5-.2-12.9-.2-19.3,1.6,2.2-1.6,4.4-2.5,7.2-2.6Z"/>
  <path class="st6" d="M73.8,124.2c9.8.2,19.6-.3,29.3.6,1.4.7,2.6,1.8,3.5,3.1,1.7,10.3.4,19.9.7,30.2,0,4.4.4,9.4-1,13.6-1.4,3.5-5.3,4.8-8.7,5.1-7.3.5-14.7-.3-22,0-7.1.3-14.1.2-21.1-1-1-.6-1.9-1.4-2.5-2.4-.7-10-.3-20.2-.5-30.3-.1-5.5.3-11,1.9-16.3l1.1-1.1c6.4-1.8,12.8-1.7,19.3-1.6Z"/>
  <path class="st2" d="M53.4,126.8c-1.5,5.3-2,10.8-1.9,16.3.3,10.1-.2,20.3.5,30.3-1.8-3.2-2.3-6.6-2.2-10.3.1-8,0-16.1,0-24.1,0-4.6.3-8.7,3.5-12.3Z"/>
  <path class="st2" d="M106.6,127.8c2.9,4.6,2.2,9.1,2.2,14.3-.2,8,.1,16,0,24-.1,3.8-1.1,7.4-4.2,9.7-3.2,2.4-8,2.1-11.8,2.2-9.7-.2-19.4,0-29.1,0-3.4,0-6.2-.6-9.2-2.3,7,1.2,14,1.3,21.1,1,7.3-.3,14.7.5,22,0,3.5-.3,7.4-1.5,8.7-5.1,1.3-4.2.9-9.2,1-13.6-.3-10.3,1-20-.7-30.2Z"/>
  <path class="st4" d="M98.6,131.1c3.2.8,3.7,4.4,4.6,7-4.7,6.3-10.5,11.7-15.7,17.6-2.4,2.6-4.6,5.4-7.2,7.8-1.7,1.7-4,1.5-6.2,1.9-2.7-3.5-5.6-6.7-8.8-9.7-2.3-2.4-5-4.8-4.4-8.5.4-3.4,3.6-5.1,6.7-3.9,3.2,1.6,5.9,4.5,8.6,6.8,5.7-5,10.4-10.8,15.8-16.1,1.9-1.7,4-3.8,6.8-3Z"/>
  <path class="st1" d="M103.2,138.1c-.8,3.2-2.1,5.5-4.4,7.9-4.4,4.6-8.9,9.1-13.1,14-2.1,2.3-4.4,5.4-7.3,6.7-1.6.6-3.1-.6-4.4-1.3,2.3-.4,4.5-.2,6.2-1.9,2.6-2.3,4.9-5.2,7.2-7.8,5.2-6,10.9-11.3,15.7-17.6Z"/>
  <path class="st2" d="M141.8,139c67,0,134,0,201,0,5.6,0,11.3,0,16.9.2.5,7.2.7,14.4-.2,21.5-.4-6.9-.1-13.8-.5-20.7-9.4-.4-18.8-.1-28.2-.2-64,0-128,0-192,0-4.1,0-8.2,0-12.2.2-.4,7.1.2,13.9-.9,20.9-.9-7-1.1-14.3-.3-21.3,5.2-1.3,11.1-.5,16.4-.6Z"/>
  <path class="st6" d="M126.6,140c4.1-.2,8.1-.2,12.2-.2,64,.1,128,0,192,0,9.4,0,18.8-.2,28.2.2.4,6.9.1,13.8.5,20.7-6.6.7-13.1.4-19.7.4h-194c-6.7,0-13.4,0-20.2-.2,1.1-7,.6-13.8.9-20.9Z"/>
  <path class="st2" d="M64.8,192.3c7.7,0,15.4.1,23,0,4.9,0,9.5-.3,14.2,1.1-10.4.7-20.8.3-31.2.3-4.5,0-9.9-.5-14.2,1.2-4.4,2.2-5.4,7.6-5.5,12.1-.1,11.1.2,22.2,0,33.3-2-5.4-1.2-11.6-1.3-17.3.2-6.3-.3-12.7.1-19,.3-4.3,2.5-8.4,6.4-10.5,2.5-1.3,5.7-1.3,8.4-1.3Z"/>
  <path class="st6" d="M102.1,193.4c2.6.8,4.7,2.8,5.5,5.4-.9,12.4.2,24.9-.5,37.3-.3,4.7-3.2,8.7-8.2,9-14,.9-28.2-.6-42.2.7-2.5-.8-4.6-3-5.5-5.5.2-11.1-.2-22.2,0-33.3.1-4.5,1.2-9.9,5.5-12.1,4.3-1.7,9.6-1.2,14.2-1.2,10.4,0,20.9.4,31.2-.3Z"/>
  <path class="st2" d="M107.5,198.8c1.9,5.5,1.2,11.5,1.2,17.3-.2,6.6.3,13.3-.2,19.9-.2,4.5-3.3,8.8-7.6,10.3-7.4.2-14.7-.1-22.1,0-7.1-.1-14.3.4-21.3-.3l-.9-.2c14-1.3,28.2.2,42.2-.7,4.9-.3,7.8-4.3,8.2-9,.8-12.4-.4-24.9.5-37.3Z"/>
  <path class="st4" d="M96.7,200.4c2.6.1,4.6,2.7,6.2,4.5-1.1,2.9-2.3,5.6-4.5,7.8-5.4,5.6-10.7,11.3-15.8,17.2-1.4,1.6-3.1,3.4-5,4.4-2.2.7-4.6-1.5-6.2-2.8-3.2-3.1-6.4-6.3-9.6-9.4-1.2-1.9-2.6-4.3-1.7-6.5,1.2-2.7,4.4-4.9,7.3-3.2,3.1,1.8,5.7,4.7,8.4,7,5.1-5.1,9.7-10.5,14.8-15.5,1.6-1.4,3.8-3.6,6.1-3.5Z"/>
  <path class="st1" d="M102.9,204.9c-.3,2.9-.5,5.6-2.5,7.9-5,6.2-11.1,11.6-16.3,17.7-1.7,1.8-3.5,4.1-5.8,5.2-2.2.9-4.4-.7-6.1-2.1-3.9-3.4-7.6-7.2-10.5-11.5,3.2,3.1,6.4,6.3,9.6,9.4,1.6,1.3,3.9,3.5,6.2,2.8,1.9-1,3.5-2.8,5-4.4,5.1-5.9,10.4-11.6,15.8-17.2,2.2-2.2,3.4-4.9,4.5-7.8Z"/>
  <path class="st6" d="M127.9,206.4c3.9-.3,8,0,11.9,0,73.3,0,146.7,0,220,0,.7,7.2.7,14.4.1,21.6-7.4.3-14.7.2-22.1.2-65.3,0-130.7,0-196,0-5.6,0-11.2,0-16.8-.2-.2-6.5-.7-13.1,0-19.6,0-1.5,1.7-1.8,2.9-1.9Z"/>
  <path class="st6" d="M57.5,246c7,.7,14.2.2,21.3.3,7.4-.1,14.8.2,22.1,0-7.2,1-14.8.4-22.1.5-7-.2-14.5.6-21.3-.8Z"/>
  <path class="st6" d="M61.8,261.2c6.3-.4,12.7,0,19,0,5.6,0,11.3-.4,16.9.2,4.3.4,8.8,3.2,9.7,7.8-1,8.7-.4,17.3-.6,26.1-.1,4.5.3,8.9.7,13.3-.4,3.4-3.3,6.4-6.6,7.2-9-.8-18-.3-27.1-.4-6.9.1-13.6.3-20.3-1.7-1.7-1.3-2.9-3.1-3.1-5.2,1.8-14-1.3-29,2-42.5,2.3-3,5.7-4.3,9.4-4.5Z"/>
  <path class="st2" d="M52.4,265.7c-3.3,13.5-.2,28.6-2,42.5-1.2-8.6-.3-17.5-.6-26.1.2-5.5-1.1-11.8,2.6-16.4Z"/>
  <path class="st4" d="M100.3,270.7c1,1.6,1.4,3.6,1.8,5.4-6.6,7.1-13.2,14.3-19.7,21.6-1.7,1.9-3.6,4.1-5.8,5.4-2.1.3-4.2-1.8-5.7-3.1-3.3-3.4-6.7-6.7-10.1-9.9-1.2-1.8-2.5-4.3-1.6-6.5,1.1-2.8,4.3-4.3,7.2-3.1,3.3,1.6,6,4.6,8.6,7,5.8-5.3,10.8-11.3,16.3-16.8,2.5-2.6,6.5-2.6,9,0Z"/>
  <path class="st2" d="M107.4,269c1.3,6.1.8,12.8.8,19.1-.1,6.7.5,13.8-.7,20.3-.5-4.4-.9-8.8-.7-13.3.2-8.7-.4-17.4.6-26.1Z"/>
  <path class="st1" d="M102.1,276.1c-1,2.7-2.3,4.9-4.2,7.1-5.3,6-10.8,11.8-16.2,17.8-1.3,1.3-3,3.1-4.9,3.2-2.7.2-4.7-1.8-6.5-3.4-3.4-3.2-6.8-6.7-9.4-10.6,3.4,3.2,6.8,6.6,10.1,9.9,1.4,1.3,3.6,3.5,5.7,3.1,2.2-1.3,4.1-3.5,5.8-5.4,6.4-7.3,13.1-14.5,19.7-21.6Z"/>
  <path class="st6" d="M129.8,278.1c68.2.1,136.8,0,205,0,8.3,0,16.5-.2,24.8.2.6,7.3.5,14.6.2,21.9-6.3.4-12.7.3-19,.3-63.7,0-127.3,0-191,0-8.4,0-16.6.3-25-.3-.2-6.6-.7-13.4,0-20,.1-2.2,3.3-2,4.9-2.2Z"/>
  <path class="st2" d="M53.5,313.5c6.7,2,13.4,1.9,20.3,1.7,9.1,0,18.1-.4,27.1.4-9,2-18.8.5-28.1,1-6.2-.3-14.3,1.3-19.3-3.1Z"/>
  <path class="st3" d="M52.1,347.5c5.1-1,10.5-.3,15.7-.4,92,0,184,0,276,0,4.9.1,10.6-.7,15.2.9,2.3,1.7,1.2,4.9,1,7.3-9.4.5-18.8.2-28.3.3-88.3,0-176.7-.1-265,0-5.4-.1-11.4.6-16.6-.8-2.4-2.5-1.2-6.2,1.9-7.3Z"/>
  <path class="st0" d="M359,397.4c2.6-.4,5.2-.3,7.8-.3,7.1.2,14.1-.2,21.2.5-1.9,2.7-4,5.2-6.3,7.4-5.7,5.3-11.2,10.8-16.8,16.2-4.3,4.1-8.1,8.3-13,11.8.6-10.7-.5-21.3.7-32,1.8-1.5,4-3.3,6.3-3.6Z"/>
  <path class="st3" d="M41.6,398.2c91.4-.5,182.8-.5,274.2-.5,6.7,0,13.4-.2,20,.2,0,2.4,0,4.8,0,7.2-6.7.2-13.4,0-20.1,0-80,0-160,0-240-.2-5.6,0-11.4.3-17-.3-6.3-.7-11.8-3.5-17.2-6.5Z"/>
  <path class="st1" d="M352.6,401c-1.2,10.7-.1,21.3-.7,32l-.7.6c-.9-7.2-.4-14.3-.4-21.5,0-3.9,0-7.5,1.8-11.1Z"/>
  <path class="st1" d="M34.6,412.5c.7.2,1.3.4,2,.6l1.5.7c0,6.4.4,12.4-.7,18.6-.6-4.5-.5-9-.5-13.5,0-2.5-1.2-4.4-2.3-6.5Z"/>
  <path class="st1" d="M74.3,429.1c4.7-.5,10.5-1.3,14.9.5,2.2,2.5,1.9,7.1,3,10.2.8,2.9,3,4.5,5.9,4.8,5.2.6,11,.6,16.1-.2,2.8-.4,4.2-2.6,6-4.5-.2,2.1-.3,4-2.5,5.1-4,2.1-9.6,1.8-14,1.8-3.4-.2-8.4-.2-11-2.7-2.9-3.6-2.2-9.7-4.5-13.5-4.6-.9-9.4-.6-14-1.5Z"/>
  <path class="st1" d="M136.9,429.4c2.9,3.6,2.6,8.6,4.3,13,2.3,1.6,4.7,2.6,7.6,2.7,4.9.2,9.9.4,14.7-.4,2.1-.3,3.2-1.7,4.5-3.3.5-.8.9-1.7,1.3-2.5-.1,1.8,0,4-1.3,5.4-2.2,2.2-5.2,2.5-8.1,2.7-4.5.2-9.1.2-13.6-.4-2.8-.5-5.3-1.5-6.6-4.2-1.8-4-2.3-8.6-2.7-12.9Z"/>
  <path class="st1" d="M221.9,430l.9-.2c-1.9,4.5-2.5,9.5-4.5,13.8-2.2,3.1-7.9,3.2-11.4,3.4-4.9,0-11.5.6-15.8-2.1-4-2.9-3.6-9.7-4-14,1.9,4.2,1.7,8.4,4.1,12.4,5.2,2.7,11.9,1.9,17.7,2,3.5,0,5.8-.6,8.6-2.8,1.4-3.5,1.7-7.3,2.9-10.9.2-.8.8-1.3,1.6-1.5Z"/>
  <path class="st1" d="M271.7,429.4c-.5,4.3-1.1,8.8-2.9,12.7-1.3,2.7-3.8,3.7-6.6,4.2-6.7,1-13.6.7-20.2-.9l.2-1.4c6.4.7,12.8,1.3,19.3.6,2.3-.3,4.5-.9,5.9-3,2.2-3.7,1.2-8.9,4.2-12.3Z"/>
  <path class="st1" d="M73.3,431c-.3,3.6,0,8.4-2.3,11.4-2.2,2.8-7,2.9-10.2,3.1-5.7,0-13.3.3-18.2-3.2-2.2-1.4-3-3.7-3.5-6.1,1.9,2.5,3.7,4.8,6.6,6,4.5,1.8,10.2,1.6,15.1,1.6,2.9-.1,6.9-.2,9.1-2.4,1.9-3,1.9-7,3.4-10.2Z"/>
  <path class="st3" d="M168,441.4c-1.2,1.5-2.4,3-4.5,3.3-4.8.8-9.9.5-14.7.4-2.9,0-5.2-1.1-7.6-2.7,8.7-1.6,17.8-.5,26.8-1Z"/>
  <path class="st3" d="M198.7,441.4c6.2-.1,12.6-.1,18.7.9-2.8,2.2-5.1,2.8-8.6,2.8-5.8,0-12.4.8-17.7-2,2.4-1,4.9-1.7,7.5-1.7Z"/>
  <path class="st6" d="M291.7,441.9c7.4-.3,14.8-.3,22.1-.1-7.3,1.3-14.8,1.3-22.1.1Z"/>
<script xmlns=""/></svg>
