<svg xmlns="http://www.w3.org/2000/svg" id="Layer_1" version="1.1" viewBox="0 0 879.9 736.6">
  <!-- Generator: Adobe Illustrator 30.2.1, SVG Export Plug-In . SVG Version: 2.1.1 Build 1)  -->
  <defs>
    <style>
      .st0 {
        fill: #2e1e5c;
      }

      .st1 {
        fill: #f83062;
      }

      .st2 {
        fill: #faf7f2;
      }

      .st3 {
        fill: #e9dad3;
      }

      .st4 {
        fill: #bab0cb;
      }
    </style>
  </defs>
  <path class="st0" d="M437.5,0c8.8-.4,16.5,2,25,3.3,8.1,1.3,16.1,2.7,24.1,3.9,18.1,2.6,36.1,6,54.2,8.7,5.7.8,11.4,2,17.1,2.9,22,3.1,43.8,7,65.8,10.2,12.2,2,24.3,4,36.5,5.7,42.1,6.4,84.2,12.9,126.2,19.8,10.3,1.7,20.7,2.9,30.9,4.8,9.7,1.8,19.2,5.3,27.6,10.5,11.8,7.2,21.2,18.6,26.8,31.2,2.7,6.1,3.8,12.5,5.8,19.2,1.6,5.5,2.5,11.2,2.4,16.9-.3,9.8-2.5,19.6-3.8,29.3-5,35.4-11.1,70.7-16.4,106.1-2.2,13.2-4.2,26.5-6.1,39.8-5.8,34.8-10.8,69.6-16.3,104.4-2.4,20.1-6.3,40-9,60-2,14.2-4.4,28.4-6.5,42.7-3.4,23.6-7.7,47.1-10.9,70.7-1.4,9.8-3.2,19.6-4.7,29.3-2.2,15.9-5.6,31.6-7.8,47.5-1,5.3-1.6,10.7-3,15.9-4.1,13.8-11.9,26.3-22.5,36-10.7,9.6-24.3,15.2-38.5,16.8-9.1,1-18.5.9-27.6-.9-22.4-4.2-44.8-8.6-67.2-12.8-29.6-6.2-59.3-11.1-89-17-13.7-2.5-27.3-5.6-41.1-7.8-33.7-6-67.2-13-100.9-19-19.9-3.6-39.7-8-59.6-11.3-9.7-1.2-18.9-3.8-27.3-8.9-2-1.1-4-2.7-6.3-3.3-4.4.4-8.7,2.4-12.9,3.4-15.3,4-30.8,7-46.2,10.6-17.5,3.8-34.9,8-52.5,11.5-7.2,1.4-13.9,3.3-21.1,3.5-16.8.7-34.3-4.6-47.3-15.3-7.9-6.6-14.1-15.2-18.6-24.4-2.5-4.8-4.8-9.6-6.1-14.9-2-8.7-4.3-17.3-6.6-25.9-4.1-13.4-7-27-11-40.4-4.1-16.8-8.8-33.4-12.9-50.3-6.6-23.5-12-47.2-18.2-70.8-5.7-21.2-10.9-42.4-16.2-63.7-4.6-17.9-9-35.9-13.4-53.9-6.2-23.1-11.2-46.5-17.1-69.7-4-15.8-7.9-31.7-11.4-47.6-1.6-7.4-4-14-3.8-21.7.3-14.9,5-30.3,14.9-41.6,6.1-6.8,13.8-12.2,22.2-15.8,8.4-3.6,16.8-4.4,25.7-6.3,16.1-3.5,32.2-6.4,48.3-9.9,40.9-8,81.7-16.8,122.6-25.2,27.2-5.1,54.3-11.1,81.5-16.6,19.6-4.5,39.5-8.1,59.1-12.9.9-2.2,1.6-4.5,2.1-6.8,3.3-13.6,11.5-25.9,22-35.1C409.3,5.7,423.2.8,437.5,0Z"/>
  <path class="st2" d="M442.5,23.1c6.6-.4,12.7.8,19.2,1.7,13.1,1.7,26.2,3.9,39.3,6,22.5,3.9,45.1,6.6,67.6,10.3,15.7,2.3,31.4,4.5,47,7.1,20.9,3.4,41.8,6.4,62.7,9.4,23.8,3.1,47.3,7.6,71,10.9,20.7,3.6,41.7,6.3,62.2,10.6,16.8,2.6,30.5,17.2,34.9,33.1,3.5,12.6-.7,26.5-2.6,39.2-4.2,27.6-9,55.1-13,82.8-.7-.1-1.4-.2-2-.3-3.9,19.5-7.5,39-11.1,58.6-2.6,17-6,34-9,51-2.7,14-5.5,28-7.8,42.2-3.3,20.6-7.8,40.9-11.5,61.5-4.1,20-7.7,40.1-11.9,60.1-1.4,6.4-2.2,13-3.6,19.4-4.2,17.8-7.7,35.7-11.5,53.5-2,9.1-3.4,18.4-5.5,27.5-3.7,17.8-15.7,34.7-32.3,42.8-7.8,3.6-16.5,5.8-25.1,5.6-10.9-.3-21.8-2.9-32.7-4.2-17.9-2.2-35.7-4.8-53.6-7.3-28.3-5-56.7-9.7-85-14.9-26.9-5.3-53.7-11.3-80.3-17.7-21.5-5.5-43.4-10.1-64.7-16.3-11.9-4.1-25.2-7.5-35.8-14.2-8-5.2-14.4-13.3-17.7-22.3-1.5-4.2-2.1-8.4-2.7-12.9-1.3,6.5-3.5,12.7-6,18.8-.4-.6-.8-1.3-1.2-1.9,1.3-9.3,3-18.4,4.7-27.6,2.6-19.1,6.2-38.1,9.1-57.1,7.4-43.1,14-86.4,21.3-129.6,4-22.2,7.2-44.6,11.1-66.8,2.9-18.7,6.4-37.2,9.3-55.9,2.8-16.9,5.8-33.7,8.5-50.6,2.6-13.8,4.9-27.7,7.2-41.6,3.6-25,8.5-49.7,12.5-74.6,1.5-9.5,6.2-18.2,13-24.9,6.7-6.9,16.5-10.7,26-11.2Z"/>
  <path class="st0" d="M475.7,66.2c6.9.6,13.9,1.9,20.8,3.2,3,.4,2.5,2.4,3.2,4.7,5.8,30.8,12.2,61.4,17.9,92.2.8,4,1.6,8,2,12.1-8.4-.6-16.9-2.2-25.2-3.9-1.9-8.2-2.2-16.6-4.1-24.8-12.5-1.9-25-4.1-37.5-6.2-4.7,6.9-8,14.7-12.5,21.7-5.5,0-10.6-1.5-16-2.3-3-.5-5.9-.5-8.8-1.7,18.2-29.7,37.2-58.8,55.4-88.6,1.4-2.3,2.9-4.5,4.8-6.4Z"/>
  <path class="st3" d="M371,77.1c-.3,2.5-.6,5-1.1,7.5-4.4,24.8-8.6,49.6-12.5,74.5-4.6,26.7-9.7,53.3-13.9,80.1-1,6.3-1.9,12.7-3.2,19-4.5-2.7-8.8-5.3-13.9-6.9-4.8-1.6-9.9-2.7-14.9-3.5,1.6-4,2.5-8.1,3.1-12.4,3.7-23,8.5-45.8,12.2-68.8,4-24.4,8.7-48.6,13-72.8.8-3.6,1.3-7.3,1.7-11,9.8-1.7,19.5-4.4,29.4-5.7Z"/>
  <path class="st2" d="M341.6,82.8c-.4,3.7-.9,7.4-1.7,11-4.4,24.3-9.1,48.5-13,72.8-3.7,23-8.5,45.8-12.2,68.8-.6,4.3-1.6,8.3-3.1,12.4-16.6-1.6-34.3,2.3-47.2,13.3-5.2,4.4-10.2,9.5-13.6,15.4-2.4,4-3.7,8.3-5.5,12.7-3.4-2.4-6.6-5.2-10.1-7.6-11.8-7.6-25.6-11.7-39.7-11.2-12.8,0-24.7,4.6-35.2,11.7-6.7,4.5-12,11.1-15.8,18.2-5.7,10.8-6.6,24.4-4.3,36.2,2.9,13.1,9.2,25,18,35.1,12.7,14.5,27.5,25.9,43.6,36.4,23.4,15.7,47.7,29.3,71.8,43.8-2.5,7.5-3.2,15.1-4.8,22.8-3.5,18.9-7.1,37.7-10.4,56.6-1.5,8.4-3.4,16.7-4.9,25.1-1.9,11.3-4.6,22.3-5.1,33.8-3.6.7-7.2,1.4-10.7,2.4-12.6,3.4-25.4,6.2-38.2,8.8-9.6,1.9-20.8,2.7-30.2-.8-7.9-2.9-14-9.6-16.5-17.6-3.1-10.4-5.6-20.9-8.7-31.2-3.7-11.9-6.8-23.9-10.2-35.8-3.4-12.5-7.1-24.9-10.7-37.4-4.7-15.5-8.6-31.2-13.3-46.7-6.2-20-11.8-40.2-17.6-60.4-5.5-18.6-10.4-37.5-15.9-56.1-2.2-6.9-4.4-13.7-6.3-20.7-1.4-4.5-1.9-8.8-4.8-12.6.3,7.5,3.2,15,5,22.3,2.6,10.7,5.4,21.3,8.2,31.9,3.2,11.3,6.3,22.7,8.7,34.2,3.1,11.7,5.3,23.6,8.9,35.1,1.5,6,3,12.1,4.9,18,1.7,5.3,2,10.5,1.8,16-6.1-21.3-11.7-42.8-17.2-64.3-3.6-14.6-7.8-29-11.4-43.5-6.6-26.4-13.4-52.6-20-79-2.8-11.8-6.3-23.3-9.1-35.1-2.9-10.8-5.5-21.7-8.4-32.5-1.9-7.1-2.3-14.8-.2-21.9,2-6.7,7.3-12.2,12.9-16.1,4.6-3.2,9.8-4.8,15.2-5.8,35.4-7.1,70.6-15.1,105.9-22.2,16.2-3.5,32.3-7.1,48.5-10.3,9.3-2.2,18.6-4.1,28-6,31.5-6.8,63-13.5,94.6-20Z"/>
  <path class="st2" d="M481.9,91.1c1.2,6.6,2,13.2,3,19.7,1,6.7,2.4,13.2,2.8,20-8.7-1.2-17.3-2.6-26-4.1,4.5-9.6,10.4-18.6,15.3-28,1.4-2.8,3-5.2,4.9-7.7Z"/>
  <path class="st0" d="M134.3,158.6c6.6,8.4,12.4,17.4,19,25.8,13.9,19.2,27.9,38.2,41.5,57.6.8,1.3,1.6,2.6,2.4,3.9-8.3,2.2-17,4.1-25.4,5.7-4.9-6-7.6-13.3-12.3-19.3-6.3,1-12.5,2.8-18.8,4.1-5.9,1.4-12.1,2.3-17.8,4.2-1.8,7.8-1.9,15.4-2.9,23.4-4.4,1.8-8.9,2.2-13.5,3.2-3.7.8-7.4,1.5-11.2,1.9.6-8.7,3-17.2,4.3-25.8,3.6-21.4,7.1-42.9,10.6-64.3.9-5.2,1.2-10.3,2.6-15.4,7-2,14.4-3.5,21.6-4.9Z"/>
  <path class="st2" d="M128.8,183.1c3.5,4.6,6.2,9.7,9.4,14.5,3,4.6,6.1,9.2,9.1,13.9.9,1.3,1.5,2.8,2,4.3-8.1,2-16.3,3.9-24.5,5.2.9-12.7,3.2-25.2,4-37.8Z"/>
  <path class="st0" d="M464.8,183.7c3.3,3.9,5.4,8.8,8.3,13,5.1,7.4,10.9,14.4,16.5,21.5,3.9,5,7.4,10.5,9.2,16.7,2.7,9.6-.8,20.9-9.1,26.6-6.6,4.6-16,5.5-23.2,1.8-4.7-2.4-6.7-6.8-9.3-11.1-1.4,7.1-1,14.5,2.4,21,2.1,4.1,5.8,7,8.9,10.4-7-.3-13.5-1.9-20.4-2.9-6.9-1.2-13.9-2.1-20.7-3.5,2.9-1.7,6-3.2,8.8-5.2,6.8-5.3,11.3-12.9,12.6-21.4-1.5,1.1-3,2.3-4.6,3.4-4.6,3.4-11.1,4.2-16.6,3.4-10.5-1.8-18.8-12.1-17.8-22.8.5-5.7,2.2-11.5,6.3-15.6,9.5-9.5,21.3-14.4,32.5-22.6,5.7-3.9,10.8-8.5,16.2-12.6Z"/>
  <path class="st0" d="M619.6,214.3c2.7,3.8,4.5,7.9,7,11.9,10.2,17.1,21.8,33.6,32.9,50.1,14.1,20.7,28.7,41.1,43.9,61.1,13.9,19,27.9,39.4,34.9,62.1,5.8,19,6.8,39.5,0,58.4-5.1,15.2-14.5,28.9-27.5,38.5-22.9,17.3-55.7,19.4-80.7,5.2-13.9-8-25-20.3-30.5-35.5-1-3.1-1.9-6.2-3.6-9.1-1.8,14-2.1,28.7,1.1,42.6,4.3,22.3,18.5,41.9,35.2,56.8,4,3.8,8.3,6,11.4,10.5-7.3-1-14.5-2.4-21.8-3.4-44.4-8.2-89.2-14.6-133.5-23.1,3.5-2.6,7.4-3.3,11.3-5,12.8-5.2,24.8-11.6,35.5-20.5,9.6-8.5,17.5-18.7,22.6-30.4,4.6-10,8-20.5,9.6-31.5-3.6,3.9-6.3,8.3-10.2,11.9-4.5,4.3-9.5,8.1-14.9,11.1-14.6,7.9-31.7,10.2-48,7.2-11.5-2.3-22.8-6.8-32.2-13.7-18.6-14.1-29.6-37.2-30.5-60.4-.8-18.9,4.8-38,15.2-53.8,9.8-14.9,22.5-26.6,36.1-37.9,5.6-4.4,11.6-8.4,17.3-12.7,12.7-8.9,25.1-18.3,37.8-27.2,7.9-5.8,15.8-11.5,23.5-17.5,15.7-11.9,31.6-23.7,46.8-36.2,3.9-3.1,7.4-6.7,11.4-9.7Z"/>
  <path class="st3" d="M828.8,233.9c.7,0,1.4.2,2,.3-6.2,38.5-12.2,77.1-18.6,115.6-2.8,19.4-6.3,38.7-9.1,58.1-7.8,44.3-14.1,88.9-21.8,133.2-3.5,21.9-7,43.7-10.4,65.6-1.9,10.1-3.5,20.3-5.2,30.5-.9,5.8-1.5,11.4-3.2,17-2.7,8.8-7,17-13.9,23.2-7.4,6.9-17.2,10.6-27.2,11.1-7.1.5-14.3-1.1-21.4-2.2-12.9-2.3-25.7-4.9-38.6-7.1-31.2-5.8-62.3-12-93.5-17.7-19.8-4.1-39.5-8-59.4-11.6-30.2-5.7-60.3-12-90.6-17.5-20.5-3.9-40.8-8.4-61.3-12.5-10.4-2-20.5-7.5-27.3-15.7-5.6-6.5-8.9-15.1-10.4-23.5-1.2-6.1-.1-11.8.9-17.8.4.6.8,1.3,1.2,1.9,2.5-6.1,4.7-12.3,6-18.8.6,4.4,1.1,8.6,2.7,12.9,3.3,9,9.6,17.1,17.7,22.3,10.6,6.6,23.9,10.1,35.8,14.2,21.4,6.2,43.2,10.8,64.7,16.3,26.7,6.4,53.5,12.3,80.3,17.7,28.3,5.2,56.7,9.9,85,14.9,17.8,2.6,35.7,5.1,53.6,7.3,10.8,1.3,21.8,3.8,32.7,4.2,8.6.2,17.3-2,25.1-5.6,16.6-8,28.6-24.9,32.3-42.8,2-9.1,3.5-18.3,5.5-27.5,3.8-17.8,7.3-35.8,11.5-53.5,1.5-6.4,2.3-12.9,3.6-19.4,4.2-20,7.8-40.1,11.9-60.1,3.7-20.5,8.2-40.9,11.5-61.5,2.3-14.1,5.1-28.1,7.8-42.2,2.9-17,6.3-33.9,9-51,3.6-19.6,7.2-39.1,11.1-58.6Z"/>
  <path class="st1" d="M311.6,247.8c5,.8,10.1,1.9,14.9,3.5,5,1.7,9.3,4.3,13.9,6.9-4.4,24.1-8.5,48.2-12.5,72.3-5.1,31.6-10.9,63-16.3,94.6-5.5,6.7-9.3,14.2-13.5,21.7-2.9,5.1-4.8,10.6-7.6,15.6-5.8-3.2-10.8-7.6-16.8-10.6-24.1-14.6-48.4-28.2-71.8-43.8-16.1-10.5-30.9-21.9-43.6-36.4-8.7-10.1-15.1-22-18-35.1-2.3-11.9-1.5-25.4,4.3-36.2,3.8-7,9.1-13.7,15.8-18.2,10.4-7.1,22.4-11.8,35.2-11.7,14-.5,27.9,3.7,39.7,11.2,3.5,2.3,6.6,5.2,10.1,7.6,1.8-4.4,3.1-8.7,5.5-12.7,3.5-5.9,8.5-11,13.6-15.4,12.9-10.9,30.6-14.9,47.2-13.3Z"/>
  <path class="st3" d="M65.4,281.9c2.9,3.9,3.4,8.1,4.8,12.6,1.9,7,4.2,13.8,6.3,20.7,5.5,18.6,10.4,37.5,15.9,56.1,5.8,20.1,11.3,40.4,17.6,60.4,4.7,15.5,8.6,31.2,13.3,46.7,3.5,12.5,7.3,24.9,10.7,37.4,3.4,12,6.5,23.9,10.2,35.8,3.2,10.3,5.6,20.9,8.7,31.2,2.5,8,8.6,14.7,16.5,17.6,9.3,3.5,20.5,2.7,30.2.8,12.8-2.6,25.6-5.3,38.2-8.8,3.5-.9,7.1-1.7,10.7-2.4.7,7.6,0,15.5,1.8,22.7.8,3.4,2.1,6.5,3.5,9.7-13,3-26.1,5.7-39.1,8.7-10.4,1.9-19.4,5.1-30.1,4.5-8.7,0-17.2-3-23.9-8.5-6.3-5.4-11.2-12.5-13.4-20.5-5.8-20.1-10.4-40.6-16.3-60.7-7.1-26.3-14-52.7-21.1-79-2.3-9.1-5.4-18.2-7-27.5.3-5.5-.1-10.7-1.8-16-1.9-6-3.4-12-4.9-18-3.6-11.6-5.8-23.4-8.9-35.1-2.4-11.5-5.5-22.9-8.7-34.2-2.8-10.6-5.6-21.2-8.2-31.9-1.8-7.3-4.6-14.8-5-22.3Z"/>
  <path class="st3" d="M311.5,425.1c-5.4,34.8-11.7,69.4-17.1,104.1-2.8,17.5-6,34.9-8.7,52.3-12.4,3-24.8,6-37.3,8.5.5-11.5,3.2-22.5,5.1-33.8,1.5-8.4,3.4-16.7,4.9-25.1,3.3-18.9,6.9-37.7,10.4-56.6,1.5-7.7,2.3-15.3,4.8-22.8,5.9,3,11,7.3,16.8,10.6,2.9-5.1,4.7-10.6,7.6-15.6,4.2-7.5,8-15,13.5-21.7Z"/>
  <path class="st4" d="M285.7,581.6c-1.2,11.4-.9,22.3,1.2,33.5-10.8,3.3-22.2,4.8-33.2,7.4-1.4-3.2-2.7-6.3-3.5-9.7-1.9-7.2-1.1-15.1-1.8-22.7,12.5-2.5,24.9-5.6,37.3-8.5Z"/>
<script xmlns=""/></svg>
