<svg xmlns="http://www.w3.org/2000/svg" id="Layer_1" version="1.1" viewBox="0 0 553.4 491.4">
  <!-- Generator: Adobe Illustrator 30.2.1, SVG Export Plug-In . SVG Version: 2.1.1 Build 1)  -->
  <defs>
    <style>
      .st0 {
        fill: #fdb230;
      }

      .st1 {
        fill: #501986;
      }

      .st2 {
        fill: #320c62;
      }

      .st3 {
        fill: #fefefe;
      }

      .st4 {
        fill: #fedb30;
      }

      .st5 {
        fill: #e4d2ea;
      }

      .st6 {
        fill: #9238c7;
      }

      .st7 {
        fill: #de90f8;
      }

      .st8 {
        fill: #fee880;
      }
    </style>
  </defs>
  <path class="st2" d="M189.5,2.1c9.4,3.7,16.3,12.7,17,22.8.3,3.1,0,6.4.9,9.4,1.9,2.9,4.9,5.2,7.3,7.6,6.4,6.2,12.9,12.4,19.4,18.6,2.7,2.5,5.4,5.8,8.7,7.5,4.8.8,10,0,14.8,0,10.7-.2,21.3-.2,32,.4,2.5,0,5.3.3,7.8-.4,1.9-1,3.6-2.6,5.2-4,8.7-8.3,17.4-16.6,26.1-24.9,1.6-1.6,3.6-3.3,4.6-5.4.8-4.2.2-8.7,1.2-12.9,1.8-7.4,7-13.6,13.7-17.3,10.4-5.7,24.2-4.1,32.7,4.2,7.9,7.5,10.7,19.2,7.1,29.5-3.1,8.9-11.1,15.8-20.3,17.7-3.6.8-7.3.4-10.9,1-1.8.4-3.4,2.1-4.8,3.4-5.9,5.9-11.7,11.8-17.5,17.7,1.8,4,3.8,7.8,4.4,12.3.5,4.2.5,8.4.6,12.6,35.4,1.6,71,2.6,106.2,6.6,9.3.9,19.2,1.6,28.3,3.8,16.6,4.4,32.6,9.8,47.5,18.5,10.4,5.9,18.9,14.6,23.2,25.8,2.5,6.6,2.7,13,3.4,19.9,5.4,48,5.9,96.9,4.6,145.2-1.1,24.5-1.8,48.7-5.1,73-1.2,8.8-1.2,18.5-4.2,26.7-3.7,10.5-10.9,19.9-20.7,25.3-10.2,5.8-22.2,9-33.6,11.5-.9,6.8-1,13.3-3.7,19.7-2.7,4.8-6.6,8.7-11.6,10.8-6.5,3-14.1,2.3-21.1,2.4-13.3-.2-26.7.2-40-.2-7.4-.1-14.4-3.5-18.9-9.4-1.9-2.6-2.5-5.7-3.8-8.6l-1.1-1.5c-3.3-.5-6.8,0-10.1.1-8.1.7-16.3.9-24.4,1.9-7.9.2-15.8.6-23.6.7-28.6,1.4-57.3,1.8-86,1.6-11.3-.2-22.7-.6-34-.7-11.9,0-23.8-1.2-35.8-1.2-6.4-.6-12.9-1.3-19.3-1.4-2,0-3.4.3-5.1,1.3-1.5,3.7-2.7,7.3-5.7,10.2-5.1,5.2-12,7.2-19.2,7.2-12.7.1-25.3-.1-38,0-6.6,0-13.6.2-19.8-2.6-4.5-2-8-5.4-10.8-9.5-3.3-6.4-3-12.7-3.8-19.6-23.9-4.5-43.5-25.9-46.1-50-3-22.8-4.8-45.7-5.9-68.7-.3-12.4-1.4-24.6-1.3-37,0-24-.3-48,.8-72,.5-19,2.3-38,3.7-57,1.1-10.8,1.2-21.4,5.6-31.5,5.5-13.8,17.4-24.9,31.6-29.4,4.8-1.6,9.7-2.5,14.8-3.1,20.1-2.2,40.2-3.6,60.3-5.4,16.9-.8,33.9-1.9,50.8-2.6,11.2-.7,22.4-.7,33.6-1.3,0-4.5,0-9.1.7-13.6.7-4,2.5-7.4,4.3-11-6.6-6.3-13-12.8-19.6-19.1-2.9-2.9-6.1-2.1-9.8-2.5-9.5-.4-18.7-6.3-22.9-14.8-5.5-10.9-3.4-24.5,5.6-32.8C167.5,0,179.2-2,189.5,2.1Z"/>
  <path class="st3" d="M183.9,10.5c-2.8,0-5.5,0-8.3,0,2.1,1.3,4.7,2.6,6.2,4.5.7,2.3-.5,4.3-1.9,6-2.2,2.5-5.3,4.6-8.6,5.4-2.2.5-4.7-.4-6-2.3-.9-2.1-1.1-4.4-1.5-6.6,2.4-2.6,4.9-4.9,8.3-6.2,3.8-1.5,7.7-1.5,11.7-.9Z"/>
  <path class="st4" d="M175.6,10.6c2.7,0,5.5-.2,8.3,0,3.1.8,5.9,3.1,8.3,5.2.4,5.2,1.3,10.8-1,15.7-2.2,5-7.2,7.9-12.5,8.5-5.1.6-10.4-1.3-15.3-2.6-3.3-6.8-3.1-13.1.6-19.7.4,2.2.6,4.6,1.5,6.6,1.3,1.9,3.7,2.8,6,2.3,3.3-.7,6.4-2.8,8.6-5.4,1.4-1.7,2.6-3.7,1.9-6-1.6-2-4.2-3.2-6.2-4.5Z"/>
  <path class="st4" d="M374.9,15.8c1,4.4,1.7,9.1.2,13.5-1.8,5.2-6.3,9.1-11.6,10.3-4.6,1.1-9.7.4-14.1-1-1.5-1.1-3-2.2-4.6-3.1-1-3.2-2-6.3-1.5-9.7.5-3.3,2.2-6.4,4.1-9.1.1,2.5,0,5.2.8,7.6.9,2,3.5,2.9,5.5,2.7,5-.4,9.7-4.1,11.4-8.8.7-2,0-3.9-1.8-5-2.5-1.4-5.9-1.6-8.7-1.8,7.3-2.4,15.1-1.8,20.3,4.4Z"/>
  <path class="st3" d="M354.6,11.5c2.8.2,6.2.4,8.7,1.8,1.8,1.1,2.5,3,1.8,5-1.7,4.7-6.4,8.4-11.4,8.8-2.1.1-4.7-.7-5.5-2.7-.8-2.4-.7-5.1-.8-7.6,2.1-2,4.5-4.1,7.3-5.2Z"/>
  <path class="st0" d="M192.1,15.7c2.3,2.7,4.2,5.6,4.7,9.2.6,4-.4,8.4-1.3,12.3-2.8,2.2-5.3,4.6-7.6,7.4-4.8.8-10.5,1.8-15.3.3-4.2-1.3-6.9-4.2-9.4-7.6,4.9,1.3,10.2,3.2,15.3,2.6,5.3-.6,10.3-3.5,12.5-8.5,2.3-4.9,1.4-10.5,1-15.7Z"/>
  <path class="st0" d="M374.9,15.8c2.9,3.4,5,7.4,4.8,12,0,7.8-5.4,15-12.8,17.2-4.5,1.3-9.5.6-14-.3-1.1-2.1-2.2-4.1-3.5-6.1,4.4,1.4,9.5,2.1,14.1,1,5.3-1.3,9.8-5.1,11.6-10.3,1.5-4.4.8-9.1-.2-13.5Z"/>
  <path class="st3" d="M344.8,35.5c1.6,1,3.1,2.1,4.6,3.1,1.3,2,2.4,4,3.5,6.1-1.3,1-2.6,1.9-3.8,3-1.1-.3-2.2-.5-3.4-.8-5.9,3.7-11,9.1-16.5,13.4-4.6,3.7-9.9,4.6-13.2,9.9-1.5-.2-3-.5-4.4-.7,8.8-9.1,18.1-17.8,27.2-26.7,2.3-2.2,4.2-4.8,6-7.4Z"/>
  <path class="st3" d="M195.6,37.2c11.2,10.6,22.4,21.4,33.2,32.5-1.9.3-3.8.5-5.7.9-3.2-4.1-7.1-7-11.4-9.7-6.1-3.8-10.9-8.9-16.1-13.7-.8,1-1.5,2-2.3,3-1.8-1.9-3.5-3.7-5.3-5.5,2.3-2.8,4.8-5.1,7.6-7.4Z"/>
  <path class="st5" d="M195.6,47.1c5.2,4.8,10,9.9,16.1,13.7,4.4,2.7,8.2,5.7,11.4,9.7-2.4.5-4.8,1.3-7.3,1.5-1.8-.5-3.4-2.3-4.8-3.5-5.9-6.1-11.9-12.2-17.8-18.4.8-1,1.5-2,2.3-3Z"/>
  <path class="st5" d="M345.7,46.9c1.1.2,2.2.5,3.4.8-7.8,8.4-15.8,16.8-24.3,24.5-2.9-.7-5.8-1.4-8.7-1.9,3.3-5.4,8.6-6.2,13.2-9.9,5.4-4.3,10.6-9.8,16.5-13.4Z"/>
  <path class="st7" d="M278.1,77.8c0,2.6,1,6.4-1.1,8.4-2.6,2.9-6.6,3.5-10.3,3.9-8.6.8-17.4.7-26.1,1-4.7.2-10.7,1.1-14.3,4.5-1.6,2.3-1.3,6.1-1.7,8.7-4.4,0-8.8.1-13.2,0,0-5.5-.8-12.1,1.3-17.3,3.5-6.1,9.3-6.8,15.7-7.2-3.1,1.4-6.3,2.9-9,5-2.5,2.1-4.2,5.4-3.2,8.6,1,2.1,3.7,3.4,6.1,3.2,2.1-1.4,3.7-3.6,5.5-5.4,2.6-2.5,5.5-4.2,7.8-6.8-1.9-1.8-4.2-3.3-6.5-4.7,16.1-2,32.6-1.9,48.8-1.8Z"/>
  <path class="st6" d="M278.1,77.8c9.2-.2,18.4.7,27.7.9,5.9.3,13.2.6,18.3,3.8,2.8,1.7,4,4.4,4.8,7.5-7.2-.4-14.3-1.6-21.6-1.8-.8,3.2-1.5,6.5-2.8,9.5-1.1,2.7-3.6,4.5-5.7,6.4-24.7-.1-49.5,0-74.1,0,.4-2.7.1-6.5,1.7-8.7,3.6-3.4,9.5-4.3,14.3-4.5,8.6-.3,17.4-.2,26.1-1,3.7-.4,7.7-1,10.3-3.9,2.1-1.9,1-5.8,1.1-8.4Z"/>
  <path class="st3" d="M228.5,79.6h.8c2.2,1.3,4.5,2.8,6.5,4.6-2.3,2.7-5.2,4.3-7.8,6.8-1.8,1.8-3.5,4-5.5,5.4-2.3.2-5-1.1-6.1-3.2-1-3.2.7-6.6,3.2-8.6,2.6-2.1,5.9-3.6,9-5Z"/>
  <path class="st1" d="M328.9,90c.3,4.9.3,9.8.5,14.7-10.2.2-20.4.2-30.6-.5,2.1-1.9,4.6-3.8,5.7-6.4,1.3-3,1.9-6.3,2.8-9.5,7.2.1,14.4,1.4,21.6,1.8Z"/>
  <path class="st7" d="M296.7,111.4c29.3.5,58.7,1,88,2.9,20.7.7,41.4,2.3,62,4.5,7.1.6,14.1,1.4,21.1,2.8,10,6.6,21.3,12.9,27,23.8-1.8.5-3.6.9-5.5,1.3-.9,3.5-2,6.7-1.4,10.3.7,4.4,2,8.6,2.8,13,2.1,11.1,2.2,22.3,3.7,33.4.7,5.1.7,10.2.7,15.3,0,6.4,1,12.6,1,19-.2,26.5.5,52.5-1,79-.3,10.4-.7,20.8-2.1,31.1-1.4,15.1-3.5,30-6.5,44.9-1.9,9.1-5.9,17.9-11.7,25-6.5,8-17.2,11.5-27.1,12.9-27.8,3.5-55.9,5.9-83.9,7.1-18.3.8-36.9,2.3-55.2,1.7,9.1-.9,18.2-1.4,27.4-2,19.6-.6,39.2-2.6,58.8-4.2,19.8-1.6,39.1-3.3,58.6-6.5,6.4-1.1,12.4-3.6,17.6-7.6,7.2-5.5,11.7-14.4,13.2-23.2,2.1-12.4,3.4-24.9,4.4-37.4,1.9-18.9,2.6-37.7,3.5-56.7.4-44.7.8-89.8-4.8-134.2-1.3-11-6.7-21.1-16.1-27-7.8-4.9-16.2-5.9-25.1-6.9-34.7-3.9-69.3-5.3-104.2-7.3-10.7-.3-21.3-.4-32-.6-34.8-1.3-69.7-.7-104.5-.3-47.8,1.6-96.9,3.1-144.2,9.7-8.8,1.1-16.8,5.6-22.6,12.3-5.6,6.4-7.5,14.2-8.3,22.6-1.7,18.6-3.2,37.2-3.7,55.9-.2,7-1.2,13.9-1.2,20.9,0,23.7-.3,47.3.1,70.9,1.2,17.7,1.7,35.4,3.3,53,1.1,11.3.8,23,5.5,33.5,2.6,5.8,6.1,12,11.4,15.8,5.4,4,11.5,5.8,17.9,7.2,9.4,2,19,3.3,28.5,4.4,21.2,2.1,42.5,3.9,63.8,5.3,6.4.3,12.8.6,19.2,1.5-4.7.2-9.4.2-14.1,0-21.9-.9-44.4-1.4-66.1-4.5-11.6-1.4-24.3-2.4-35.7-5.4-6.1-1.6-11.3-4.8-17.1-6.9-4.1-1.5-8.5-2-12.6-3.5-3-1.1-4.7-3.8-6.4-6.3-2.1-3.3-4.2-6.6-6.2-9.9-1.6-8.9-1.9-17.7-3-26.7-2-20.3-2.2-40.8-3.2-61.1-.7-29-.9-58.2.8-87.2.5-15.1,1.2-30.3,2.9-45.3.9-8.2,1.2-16.6,2.6-24.7,2-11.3,8.6-21.6,18.1-28,7.1-4.7,14.9-6.8,23.2-7.8,19.4-2.5,39-3.9,58.5-5.5,11.3-.9,22.6-1,33.8-2,49-2.6,97.3-2.3,146.4-2.2Z"/>
  <path class="st6" d="M467.7,121.6c4.5.7,8.9,1.2,13.1,3.1,10.6,4.6,18.6,13,24.1,23,.6,1.9,1.1,3.9,1.6,5.8-1.7,1.2-3.6,2.4-5,4-.4,1.3-.4,2.8-.3,4.2,1.6,17.6,3.6,35.3,4.2,53,.3,5.7.8,11.4.8,17.1,0,21.3,0,42.7,0,64,.3,29.4-2,59-5.1,88.2-1.4,10.1-2,21.2-6.8,30.4-3.2,6.8-7.7,12.8-13.8,17.2-7.9,6.1-17.2,8.9-26.9,10.2-17.1,2.1-34.2,4-51.4,5.6-22.1,2-44.2,3.1-66.4,3.9-17,.9-34,1.6-51.1,1.6-34.4.3-68.6.1-103-1.7-22.7-.8-45.5-1.8-68-4.2-16-1.3-31.9-3.4-47.9-5.3-8.9-1-17.7-3.5-25.9-7.1-7.6-3.4-13.5-9-19.4-14.8-2.6-5.7-3.3-11.8-3.9-18,2.1,3.3,4.2,6.6,6.2,9.9,1.7,2.5,3.5,5.2,6.4,6.3,4.1,1.5,8.5,2,12.6,3.5,5.8,2.1,11,5.3,17.1,6.9,11.4,3,24,4,35.7,5.4,21.8,3.1,44.2,3.6,66.1,4.5,4.7.2,9.4.3,14.1,0-6.4-.9-12.8-1.2-19.2-1.5-21.3-1.4-42.5-3.2-63.8-5.3-9.5-1.1-19.1-2.4-28.5-4.4-6.4-1.4-12.5-3.2-17.9-7.2-5.2-3.8-8.8-10-11.4-15.8-4.7-10.5-4.4-22.2-5.5-33.5-1.7-17.7-2.2-35.4-3.3-53-.4-23.7-.2-47.3-.1-70.9,0-7,1-13.9,1.2-20.9.5-18.7,1.9-37.3,3.7-55.9.8-8.3,2.7-16.1,8.3-22.6,5.8-6.7,13.8-11.2,22.6-12.3,47.4-6.6,96.4-8.1,144.2-9.7,34.8-.4,69.7-1,104.5.3,10.7.2,21.4.4,32,.6,34.8,1.9,69.4,3.4,104.2,7.3,9,1.1,17.3,2,25.1,6.9,9.5,5.9,14.9,16.1,16.1,27,5.7,44.5,5.2,89.5,4.8,134.2-.9,18.9-1.6,37.8-3.5,56.7-.9,12.5-2.2,25-4.4,37.4-1.5,8.8-6,17.7-13.2,23.2-5.1,4-11.2,6.5-17.6,7.6-19.6,3.2-38.9,4.9-58.6,6.5-19.6,1.6-39.2,3.6-58.8,4.2-9.1.6-18.3,1.2-27.4,2,18.3.6,36.9-.9,55.2-1.7,28.1-1.2,56.1-3.6,83.9-7.1,9.9-1.3,20.6-4.9,27.1-12.9,5.9-7.2,9.9-16,11.7-25,2.9-14.9,5.1-29.8,6.5-44.9,1.4-10.3,1.9-20.7,2.1-31.1,1.5-26.5.9-52.5,1-79,0-6.4-.9-12.6-1-19,0-5.1,0-10.2-.7-15.3-1.5-11.2-1.6-22.3-3.7-33.4-.8-4.4-2.1-8.6-2.8-13-.6-3.6.5-6.8,1.4-10.3,1.8-.4,3.7-.9,5.5-1.3-5.8-10.9-17-17.3-27-23.8Z"/>
  <path class="st3" d="M42.1,129.5c0,3.3.2,6.9-.7,10-1.4,2.6-4.2,4.6-6.2,6.8-3.1,3-5.1,6.9-8.2,9.9-1.1,1.3-3.7.7-5.3.9.3-3.6.4-6.9,2.1-10.1,4.2-7.7,10-14.2,18.3-17.5Z"/>
  <path class="st2" d="M230.7,135.6c18.7,0,37.4-.3,56.1.6,22.3.3,44.7,1.6,66.9,3.4,7.4.7,15.4,1,22.3,3.9,5.9,2.4,10.7,6.5,15.5,10.7,5.2,6.6,8.5,13.6,9.9,21.9,3,16.7,3.8,34,4.7,51,1.2,23.3,1,46.4.9,69.7,0,9.4-.6,18.6-1,28-.7,18.8-1.9,37.4-5.3,55.9-1.8,9.9-5.2,19.3-12.2,26.8-5.1,5.6-11.5,9.5-18.9,11.2-13,3.1-25.6,4-38.8,5-31.6,2.2-63.4,2.7-95,2.6-16.7,0-33.3,0-50-.7-27-.5-54.1-2.3-81-4.6-9.5-.9-19.1-1.7-28.4-3.8-8.8-2.2-15.5-7.7-21.4-14.3-1.3-3-2.9-5.9-4.3-8.8-4.8-10.8-5.5-23.7-6.9-35.4-.8-12.5-1.7-25-2.4-37.6-.8-20.1-.9-40.1-.6-60.2,0-20.5,1.4-40.6,2.9-61,.7-8,1.5-16,2.8-23.9,2.3-16,15.7-30,31.7-32.5,16.9-2.9,34.4-3.7,51.5-4.8,17.3-1.1,34.7-1.9,52-2.2,16.3-.6,32.6-.8,49-.8Z"/>
  <path class="st6" d="M508.9,135.6c11.7,4.6,23.3,14.3,27.2,26.7-2.9-1.3-5.4-3-7.9-4.9-3.5-2.7-7.5-4.7-11.5-6.5-2.3-5.3-5.5-10-7.8-15.3Z"/>
  <path class="st4" d="M247.7,145.2c22.2,0,44.4.4,66.5,1.4,11.4,1,22.8,1.2,34.2,2.5,7.5.8,15.5,1.1,22.8,3.3,9.7,2.9,16.7,12,19.5,21.4,2.6,9,3,18.8,3.9,28.1,2.2,21.6,2.6,43.3,2.5,65,0,23.8.4,47.4-1.7,71.1-1-3.1-2.3-5.7-2.6-9-.5-6,.2-12.3,1.3-18.2,0,4,.3,8.1.9,12,1.1-6.8.8-13.5.5-20.3-1.8,0-3.7-.2-5.4.2-1.4.7-2.5,2-3.2,3.3.5,3.7,2.7,7.1,3.2,10.8.6,4.6.2,9.3.1,13.9-1.2-.9-2.4-1.8-3.6-2.7-1.1,8.4-2.7,16.6-2.5,25.1.2,3.2-2.8,5.6-1.8,8.6.1.6.2,1.2.4,1.8-.7,0-1.5,0-2.2,0-1.2,6-1.6,11.6-4.1,17.3,4.9-22.8,5.7-47.7,6.5-70.9.2-19.7.1-39.3,0-59,0-9.7-.8-19.3-.9-29-.1-8.1-1.1-16.4-1.9-24.5-.6-5.4-1.1-11-3-16-1.8-4.9-4.8-9.2-9.1-12.2-5.8-4.6-12.5-5.7-19.7-6.6,2.7-.2,5.4-.5,8.1-.7-3.6-2.4-6.8-5.9-11.1-6.6-7.8-1.6-15.9-2.3-23.8-2.8-6.4-.4-12.7-1.1-19-1.2-5,0-10,.2-15,0-6-.2-12-1-18-1-24.7,0-49.3,0-74,0-8.4,0-16.6,1.3-25,1.1-8.7-.3-17.3.8-26,1.2-19,1-37.9,3.2-56.9,4.3-.7-1.6-1.3-3.2-2-4.9,11.4-1.7,22.9-2.3,34.4-3.3,42.4-3.1,85.1-3.6,127.5-3.4Z"/>
  <path class="st1" d="M504.9,147.7c3.3,5.6,5.6,11.5,6.2,18.1,2,18.6,3.4,37.3,4.1,56,1.6,32.3,2,64.7.6,97-1,25.4-2.5,50.7-6.2,75.8-1.5,9.4-2.8,18.4-6.9,27.1-3.4,7.8-8.8,14.2-15.3,19.6-7.9,6.5-17.6,9.9-27.6,11.3-9.8,1.4-19.6,2.4-29.4,3.6-27.5,3.4-55.4,5.4-83,7-10.8.8-21.7.6-32.5,1.2-8.7.2-17.3,1-26,1-17.7,0-35.3.1-53,0-8.4.2-16.6-.1-25-.7-21.3-.8-42.7-1.6-64-3.3-26.1-2.3-52.1-5.1-78.1-8.5-6.1-.9-12.3-1.9-18.2-3.8-13.7-4.6-25.2-15.5-29.9-29.3,5.9,5.8,11.8,11.4,19.4,14.8,8.2,3.7,17,6.1,25.9,7.1,16,1.8,31.9,4,47.9,5.3,22.6,2.4,45.4,3.4,68,4.2,34.4,1.9,68.6,2,103,1.7,17,0,34-.7,51.1-1.6,22.2-.8,44.3-1.9,66.4-3.9,17.2-1.7,34.3-3.6,51.4-5.6,9.8-1.2,19-4.1,26.9-10.2,6.1-4.4,10.5-10.5,13.8-17.2,4.7-9.1,5.4-20.3,6.8-30.4,3.1-29.2,5.4-58.8,5.1-88.2,0-21.3,0-42.7,0-64,0-5.7-.5-11.4-.8-17.1-.5-17.7-2.6-35.4-4.2-53,0-1.4,0-2.9.3-4.2,1.4-1.6,3.3-2.8,5-4-.5-2-1-3.9-1.6-5.8Z"/>
  <path class="st0" d="M195.7,150.2c24.7,0,49.3,0,74,0,6,0,12,.9,18,1,5,.1,10-.1,15,0,6.3,0,12.6.8,19,1.2,7.9.5,16,1.2,23.8,2.8,4.3.7,7.4,4.2,11.1,6.6-2.7.2-5.4.5-8.1.7-8.8.2-17.3-1.5-26.1-2-13-.8-25.9-1.2-38.8-2.1-28.9-.6-57.9-.6-86.8-.2-10.7,0-21.3,1-32,1-8.6,0-17.2.9-25.8,1.3-15.8.9-31.6,2-47.3,4.2-9.2,1.2-17.2,7.9-20.5,16.6-1.3,3.4-1.9,7.1-2.3,10.7-1.6,13.7-2.1,27.3-3.1,41-.5,7-.4,14-.7,21-.6,13.3-.3,26.7-.4,40,0,4.4.4,8.8.7,13.2.2,5.9-.1,11.9.4,17.8,1,13.7,1.4,27.9,3.3,41.6,1.2,7,2.2,14.7,6.5,20.6,3.7,5.2,9,8.6,15.2,9.7,37.7,6,75.1,5.7,113,7.2,21.7.2,43.3.2,65,0,28.8-1.2,58.4-2.4,87-6.2,9.7-1.3,17.3-8.2,21-17.1,2.5-5.7,2.9-11.3,4.1-17.3.7,0,1.5,0,2.2,0-.1-.6-.3-1.2-.4-1.8-.9-3,2-5.4,1.8-8.6-.2-8.5,1.3-16.7,2.5-25.1,1.2.9,2.4,1.8,3.6,2.7,0-4.6.5-9.3-.1-13.9-.5-3.8-2.7-7.1-3.2-10.8.7-1.4,1.8-2.6,3.2-3.3,1.7-.4,3.6-.2,5.4-.2.3,6.8.6,13.5-.5,20.3-.7-4-.9-8-.9-12-1.1,5.9-1.8,12.2-1.3,18.2.3,3.3,1.6,5.9,2.6,9-.6,16.3-1.8,32-5.8,47.9-2.1,7.7-6.1,14.7-12.8,19.2-6.8,4.7-15.1,5.9-23.1,6.9-29.3,3.1-58.7,4.4-88.1,4.7-14,0-28,.6-42,.1-21.7-.3-43.4-.5-65.1-1.5-22.8-1.4-46.6-2-69.2-5.2-5.4-.8-10.7-1.7-15.6-4.2-7.2-3.7-12.6-10.3-15-18-2.5-8.1-3.7-16.7-4.7-25.1-1.5-12.9-2.5-25.9-3-38.9-.2-8.6-.8-17.1-.4-25.8,1.4-10.2.5-19.9.6-30.2,0-7.2,2.8-13.9,2.9-21.2.4-15.2,1.5-30.3,2.7-45.5.4-4.2,1.3-8.3,1.3-12.5,0-3.3-1.1-6.1-2.4-9,1.3-9.3,5.8-17.8,13.7-23.1,5.1-3.3,10.5-4,16.4-4.8.7,1.6,1.3,3.2,2,4.9,19-1.1,37.9-3.3,56.9-4.3,8.7-.4,17.3-1.5,26-1.2,8.4.3,16.6-1.1,25-1.1Z"/>
  <path class="st1" d="M516.7,150.9c4,1.8,7.9,3.9,11.5,6.5,2.5,1.9,5.1,3.6,7.9,4.9,2.4,6.9,2.2,15.1,3.1,22.4,1.3,11.7,1.6,23.4,2.6,35.1.6,6.7.3,13.4.6,20.1,1.6,18.9.6,38,.9,57,.2,6.7-.4,13.3-.8,20-.3,16.3-1.8,32.5-2.5,48.7-.9,11-1.4,21.8-3.1,32.7-1.1,7.3-1.4,15.3-3.7,22.4-2.6,7.9-9.6,14.1-16.7,18-6.4,3.3-13.6,5.3-20.4,7.5,3.9-3.8,7.8-7.5,10.7-12.1,4.1-6.6,7.8-13.1,9.4-20.9,3.2-15,4.4-30.9,5.9-46.1.8-9.7,1.8-19.4,2-29.1.2-6.3.9-12.6,1-19,0-8.4,1-16.6.8-25-.2-13.3.3-26.7-.3-40-.6-9.8-.6-19.5-1.3-29.2-1.3-20.7-2.5-41.7-5.3-62.1-.5-3.9-1.2-7.7-2.3-11.5Z"/>
  <path class="st7" d="M396.6,156.9c6,5.6,9.5,13,11,21.1,2.7,15.2,3.4,31.3,4.5,46.7,1.5,31,1.2,62.3.3,93.3-1.1,21.9-2.1,43.3-5.8,64.9-1.6,8.8-4.2,17.1-9.6,24.4-7.8,10.4-19.7,16.7-32.5,18.3-29,4.1-58.6,5.3-87.8,6.1-31.1.9-62,.1-93-.2-28.3-1.3-56.8-2.7-85-5.6-10.3-1.3-21.2-2.4-30.5-7.5-6.2-3.6-11.8-8-13.3-15.5,5.9,6.6,12.6,12.1,21.4,14.3,9.3,2.2,18.9,3,28.4,3.8,26.9,2.3,54,4.2,81,4.6,16.7.7,33.3.7,50,.7,31.7,0,63.4-.4,95-2.6,13.2-1,25.9-1.9,38.8-5,7.4-1.7,13.8-5.6,18.9-11.2,7-7.5,10.4-16.8,12.2-26.8,3.5-18.6,4.6-37.1,5.3-55.9.3-9.4,1-18.6,1-28,.1-23.3.3-46.4-.9-69.7-1-17-1.7-34.2-4.7-51-1.4-8.3-4.7-15.3-9.9-21.9,1.9.7,3.7,1.2,5.2,2.6Z"/>
  <path class="st3" d="M196.7,158.2c28.9-.4,57.9-.4,86.8.2,12.9.9,25.9,1.3,38.8,2.1,8.8.5,17.3,2.2,26.1,2,7.2.9,13.9,2,19.7,6.6-2,.7-4,1.6-6,2.3-.7,2.2-2.1,4.9-1.6,7.2,1.8,5.3,6.3,9.2,6.2,15.2-.2,7.8-2.5,16.5-7.7,22.5-7.1,8.3-15.6,15.4-24.8,21.3-7.2,4.9-14.5,9.6-22.7,12.6-22.8-12.6-45.8-25-68.7-37.4-18.2-10.2-36.5-20.2-54.9-30-3.3-1.8-6.8-3.6-10.3-4.7-9.2-2.8-19.8-.7-27.3,5.3-5.3,4.3-9.3,10.4-10.9,17.1-.9,3.8-.9,7.5-.9,11.4.1,27.3-.2,54.7,0,82,0,16.6.3,33.2,0,49.8-.2,2.2-.5,4.5-.8,6.7-13.9-1.3-27.3-4.5-39.9-10.5-7.2-3.1-13.8-7-18.7-13.2-2.6-3.5-3.2-7.6-5.7-11.4-2.1-3.1-5.3-5.7-8.1-8.2-.3-4.4-.8-8.8-.7-13.2,0-13.4-.2-26.8.4-40,.3-7,.3-14,.7-21,1.1-13.7,1.5-27.3,3.1-41,.5-3.6,1.1-7.2,2.3-10.7,3.3-8.7,11.2-15.3,20.5-16.6,15.7-2.2,31.5-3.2,47.3-4.2,8.6-.4,17.2-1.2,25.8-1.3,10.7,0,21.3-1,32-1Z"/>
  <path class="st2" d="M442,160.3c7-1.5,14.4-.8,20.8,2.5,11.8,5.9,19.1,19.7,17.4,32.7-1.3,10.9-9.1,20.8-19.3,24.7-12.3,4.7-27.2,1.3-35.9-8.7-4.5-5.4-7.8-12.5-7.7-19.6,0-5.9,1.5-11.8,4.4-17,4.2-7.5,12-12.8,20.3-14.6Z"/>
  <path class="st5" d="M368.2,169c4.3,3,7.3,7.3,9.1,12.2,1.9,5.1,2.4,10.7,3,16,.9,8.1,1.8,16.4,1.9,24.5.1,9.7.9,19.3.9,29,0,19.7.1,39.3,0,59-.7,23.2-1.5,48.1-6.5,70.9-3.6,8.9-11.3,15.7-21,17.1-28.5,3.9-58.2,5.1-87,6.2-21.7.2-43.3.2-65,0-37.8-1.5-75.2-1.2-113-7.2-6.3-1-11.6-4.5-15.2-9.7-4.3-5.9-5.3-13.6-6.5-20.6-1.9-13.7-2.4-27.9-3.3-41.6-.5-6-.2-11.9-.4-17.8,2.8,2.4,6,5.1,8.1,8.2,2.5,3.7,3.1,7.9,5.7,11.4,4.9,6.3,11.5,10.1,18.7,13.2,12.6,6,26.1,9.2,39.9,10.5.3-2.2.6-4.5.8-6.7.4,7.6-.5,16.3,2,23.6,2.7,7.4,8.1,14.2,15.2,17.8,8.9,4.4,19.7,3.9,28.4-.8,25-13.9,50.3-26.9,75.3-40.7,22.7-11.9,45.1-24.4,67.8-36.2,6-3.2,10.8-8.3,13.3-14.7,2.7-6.4,2.6-13.8-.4-20-2.9-6.2-7.9-10.9-13.8-14.2-4.9-2.7-9.8-5.4-14.7-8.2,8.3-3.1,15.5-7.7,22.7-12.6,9.2-5.9,17.7-12.9,24.8-21.3,5.2-6,7.4-14.7,7.7-22.5,0-6.1-4.4-9.9-6.2-15.2-.5-2.3.9-5,1.6-7.2,2-.7,4-1.6,6-2.3Z"/>
  <path class="st8" d="M445.8,168.9c-4.7,2.5-9.7,5.8-12.7,10.3-3,3.6,2,9.7,6.1,8.1,3.7-1.1,7-3.6,9.7-6.2,1.9-1.9,2.4-4.4,3.3-6.8.5,4-1.2,7.1-3.1,10.4,1,0,2,0,3,.1-3.4,4.9-7.5,9-13.2,11.1-4.2,1.3-8.2-1.4-11.7-3.4,1.1,3.6,2.2,7.1,3.3,10.7l-.7-.4c-3.4-4.9-4-11-2.9-16.7,1.8-8.9,9.9-16.1,18.9-17.1Z"/>
  <path class="st3" d="M445.8,168.9c3-.4,6.2,0,9.2.5-2.4,0-4.8.1-7.2.3,1.5,1.5,3,3,4.5,4.5-.8,2.5-1.4,4.9-3.3,6.8-2.7,2.7-6,5.1-9.7,6.2-4.2,1.6-9.1-4.5-6.1-8.1,3-4.5,8-7.8,12.7-10.3Z"/>
  <path class="st4" d="M447.7,169.7c2.4-.1,4.8-.3,7.2-.3,4.5.9,8.1,4,11.1,7.2.3,7.1,1,13.8-2.3,20.4-3.1,6.3-9.7,9.7-16.5,10.2-6.1.5-11.5-1.6-16.9-4.2-1.1-3.6-2.2-7.1-3.3-10.7,3.5,2,7.5,4.7,11.7,3.4,5.8-2,9.8-6.2,13.2-11.1-1,0-2,0-3-.1,1.8-3.4,3.6-6.4,3.1-10.4-1.5-1.5-3-3-4.5-4.5Z"/>
  <path class="st2" d="M177.5,178c3.6,1.1,7,2.9,10.3,4.7,18.4,9.9,36.8,19.8,54.9,30,22.9,12.4,45.9,24.8,68.7,37.4,4.8,2.8,9.8,5.5,14.7,8.2,5.9,3.3,10.9,8,13.8,14.2,3,6.3,3,13.7.4,20-2.5,6.4-7.3,11.5-13.3,14.7-22.7,11.9-45.1,24.3-67.8,36.2-25,13.8-50.4,26.8-75.3,40.7-8.7,4.7-19.4,5.2-28.4.8-7.1-3.6-12.6-10.3-15.2-17.8-2.5-7.2-1.6-16-2-23.6.2-16.6-.2-33.2,0-49.8-.1-27.3.2-54.7,0-82,0-3.9,0-7.6.9-11.4,1.5-6.7,5.5-12.8,10.9-17.1,7.5-6,18.1-8.2,27.3-5.3Z"/>
  <path class="st0" d="M466.1,176.6c3.5,4,5.5,8.9,5.6,14.2.5,9-5.7,17.8-14.1,20.9-6.7,2.5-14.9,2.2-21.1-1.8-2.9-1.8-4.9-4.4-6.8-7.3l.7.4c5.4,2.6,10.8,4.7,16.9,4.2,6.8-.6,13.4-4,16.5-10.2,3.2-6.7,2.6-13.3,2.3-20.4Z"/>
  <path class="st8" d="M55.8,179.7c1.3,3,2.5,5.7,2.4,9,0,4.2-1,8.3-1.3,12.5-1.2,15.1-2.3,30.3-2.7,45.5,0,7.3-2.9,14-2.9,21.2-.1,10.3.7,20-.6,30.2-.5-13.4-.2-26.8-.2-40.2,0-10,.7-20,1-30,.9-15.9,1.5-32.5,4.4-48.2Z"/>
  <path class="st5" d="M169.7,186.3c6.4-.2,11.8,3.4,17.2,6.3,22.4,12.2,44.8,24.4,67,37,1.5,1.6,2.9,3.3,4.4,5-1,1.5-2,3-3,4.4.4,1,.7,2,1.1,3-12.5-6.9-24.9-13.8-37.5-20.4-9.3-5.5-18.9-10.6-28.4-15.8-3.8-2-7.6-4-11.1-6.4-3.4-2.6-5.9-6.4-9.4-8.8-2.8-1.2-6.8,0-9.5,1.1-5.5,2.2-9.6,7.9-9.3,13.8.8,5,4.7,7,8.7,9.2-1.1,2.6-1.8,5.2-1.7,8.1.2,10.3,0,20.7,0,31,0,18.4,0,36.8,0,55.2-.3-1.8-.7-3.5-1.1-5.3-3.4,1.5-5,1.3-8.5.2-.6-8.7-.3-17.4-.4-26.1,0-19.7,0-39.3,0-59,0-5-.2-10.1.2-15.2,1.7-9.9,11.3-17.4,21.2-17.4Z"/>
  <path class="st3" d="M170,190.6c3.5,2.4,6,6.2,9.4,8.8-1.7,4.5-2.7,9.2-4.4,13.6-2.6,2-5.8,4.2-9.2,4.1-2-.3-4-1.5-5.9-2.4-4-2.2-7.9-4.2-8.7-9.2-.3-6,3.8-11.6,9.3-13.8,2.7-1.1,6.7-2.3,9.5-1.1Z"/>
  <path class="st8" d="M179.4,199.4c3.6,2.4,7.4,4.4,11.1,6.4-6,.7-10.9,3.7-15.5,7.2,1.7-4.5,2.7-9.2,4.4-13.6Z"/>
  <path class="st7" d="M148.5,203.7c-.4,5-.2,10.1-.2,15.2,0,19.7,0,39.3,0,59,0,8.7-.3,17.4.4,26.1,3.5,1.1,5.1,1.3,8.5-.2.4,1.8.8,3.5,1.1,5.3.6,9.4,1,18.7.8,28,0,5.6-.4,11.2,0,16.8.3,7.2,7.5,13.4,14.7,12.3,4.1-.7,8.1-3.6,11.7-5.6,15.4-8.7,31.3-16.7,47-25,22.8-12.1,45.7-24,68.2-36.7,4.9-2.8,12-5.2,14.9-10.3,3.5-5.9.7-13.2-5.1-16.5-8-4.6-16.3-8.9-24.5-13.4-10-5.3-19.8-11-29.6-16.7-.4-1-.7-2-1.1-3,1-1.5,2-3,3-4.4-1.4-1.7-2.9-3.4-4.4-5,20.9,10.8,41.5,22.5,62.1,34,4.7,2.6,10.2,5.2,13.3,9.7,4.2,5.6,4.2,13.9.2,19.6-2.1,3-5.2,4.9-8.3,6.6-20.2,10.7-40.3,21.8-60.5,32.5-10.5,5.9-21.3,11.2-31.8,17.1-12.2,6.5-24.3,13.1-36.5,19.5-5.3,2.7-10.3,5.8-15.7,8.3-6.8,3.2-15.2,1.7-20.8-3.3-4.2-3.8-7.4-9.2-7.8-14.9-.4-4.6-.2-9.3-.2-13.9,0-42.7,0-85.3,0-128,0-4.3-.1-8.9.5-13.2Z"/>
  <path class="st4" d="M190.5,205.8c9.5,5.2,19,10.3,28.4,15.8,1.7,1.5,3.2,3,4.8,4.6-4.2,4.7-9.8,9.3-15.8,11.3-6.3-.6-12.3-5.9-18.4-7.7-4.4-1.7-9.1,2.9-9.4,7.1-.6,5.6-.3,11.3-1,17-6-.8-10.7,2.2-16.4,3.1-2.3.6-3.1-1.8-4.4-3.2-.1-10.3,0-20.7,0-31,0-2.9.6-5.5,1.7-8.1,1.8.9,3.8,2,5.9,2.4,3.4.1,6.6-2.1,9.2-4.1,4.7-3.6,9.6-6.5,15.5-7.2Z"/>
  <path class="st0" d="M218.9,221.6c12.6,6.6,25,13.6,37.5,20.4,9.8,5.8,19.6,11.4,29.6,16.7.5,1,.9,2,1.4,3-6.4,3.1-12.2,7.1-17.9,11.2,1.7,2.4,4.2,5,4.9,7.9.2,2.1-1.6,3.3-2.9,4.6-5.9,4.7-11.3,9.4-18.2,12.7-6.3,3-12.6,5.9-18.5,9.7-8,5-16.9,8.1-24.8,13.2-4.7,2.9-9.6,5.4-14.9,7.2-5.3,1.9-10.9,2.8-16.1,4.9-4.3,1.6-8.7,3.8-13.2,4.9-2.4.6-4.4-.2-6.6-.8.2-9.4-.2-18.7-.8-28,0-18.4,0-36.8,0-55.2,1.3,1.4,2.1,3.9,4.4,3.2,5.7-.9,10.4-3.9,16.4-3.1.7-5.6.5-11.3,1-17,.3-4.3,4.9-8.8,9.4-7.1,6.1,1.7,12.1,7,18.4,7.7,6-2,11.6-6.6,15.8-11.3-1.6-1.5-3.2-3.1-4.8-4.6Z"/>
  <path class="st2" d="M442.1,229.3c5.4-1.2,11.2-.9,16.5.7,7.4,2.1,13.9,7.6,18.1,13.9,7.8,12.7,4.5,30.6-7.2,39.7-10.5,8.3-26.1,9.2-37.4,1.9-10.4-6.6-16.1-20-13.8-32.1,2.5-11.9,12-21.5,23.8-24.1Z"/>
  <path class="st3" d="M193.9,238.8c4,1.6,7.6,4.1,11.5,6-.2,2,0,4.7-1.4,6.2-3.1,3.9-8.8,3.5-12.5,6.5-1.3,1-2.5,2.1-3.7,3.2-.3-3-.7-6.1-.9-9.1-.1-3.1-.5-6.5,0-9.6.4-3.1,4.3-4.5,6.9-3.3Z"/>
  <path class="st8" d="M450.4,237.4c.2,1,.5,2.1.8,3.1-4-.5-7.4-1.5-11.1.7-4.3,2.3-8.5,7.6-6.5,12.7,1.5,3.5,5.1,2.5,8.1,2.3-4.1,1.6-9.1,1.5-13.5,1.8-.3,2-.7,4-.9,6.1-2.4-9.1,2.2-18.8,10-23.7,4-2.5,8.4-3,13.1-3Z"/>
  <path class="st4" d="M450.4,237.4c6.5.4,11.1,2.5,15.7,7.2.5,7,1.4,14.2-1.9,20.8-3.4,6.5-10.4,9.7-17.5,9.9-6,.4-11.1-1.7-16.5-4-1.3-2.2-2.5-4.6-3-7.2.2-2,.6-4.1.9-6.1,4.5-.4,9.4-.2,13.5-1.8,3.6-2.3,7.2-5.2,9.8-8.6,2-2.1,0-4.7-.4-7.2-.3-1-.6-2-.8-3.1Z"/>
  <path class="st3" d="M451.2,240.5c.4,2.4,2.3,5,.4,7.2-2.6,3.4-6.2,6.2-9.8,8.6-3,.2-6.6,1.1-8.1-2.3-2-5.1,2.2-10.4,6.5-12.7,3.7-2.2,7.2-1.2,11.1-.7Z"/>
  <path class="st8" d="M205.3,244.8c14,7.9,27.8,16.1,41.7,24.1-3.1,5.2-5.4,10.1-10.1,14.2-8.2,6.8-17.5,11.6-27.3,15.7-7.5,2.9-14.9,6-22.7,8.1-.6-18.4-.4-36.9,0-55.3.2,3,.6,6.1.9,9.1,1.2-1.1,2.4-2.2,3.7-3.2,3.7-3,9.4-2.6,12.5-6.5,1.5-1.5,1.2-4.3,1.4-6.2Z"/>
  <path class="st0" d="M466.1,244.6c2.8,3.3,5,6.9,5.7,11.3,1.7,9.4-3.9,19.5-12.5,23.5-6.7,3.2-15,3.1-21.5-.6-3.2-1.9-5.4-4.5-7.5-7.5,5.4,2.3,10.5,4.4,16.5,4,7.1-.2,14.1-3.4,17.5-9.9,3.3-6.6,2.4-13.8,1.9-20.8Z"/>
  <path class="st6" d="M286,258.8c8.1,4.5,16.4,8.7,24.5,13.4,5.8,3.2,8.5,10.6,5.1,16.5-2.9,5-10,7.5-14.9,10.3-22.5,12.7-45.4,24.6-68.2,36.7-15.6,8.4-31.5,16.3-47,25-3.6,2-7.6,4.9-11.7,5.6-7.2,1.1-14.4-5.1-14.7-12.3-.4-5.6,0-11.2,0-16.8,2.3.6,4.2,1.4,6.6.8,4.5-1.1,8.9-3.3,13.2-4.9,5.3-2,10.8-3,16.1-4.9,5.2-1.8,10.2-4.2,14.9-7.2,8-5,16.9-8.1,24.8-13.2,5.9-3.8,12.2-6.7,18.5-9.7,6.9-3.3,12.3-8,18.2-12.7,1.4-1.3,3.2-2.5,2.9-4.6-.7-2.9-3.2-5.5-4.9-7.9,5.7-4.1,11.5-8.1,17.9-11.2-.5-1-.9-2-1.4-3Z"/>
  <path class="st4" d="M247,268.9c1.8,1.1,2.6,2.1,3.2,4.1.7,3.2,1.8,6.7-1.2,9.1-8.3,7-17.9,13-27.7,17.6-.9-1.2-1.8-2.4-2.7-3.6-3,.9-6,1.7-9,2.8,9.8-4,19.1-8.9,27.3-15.7,4.7-4.1,6.9-9.1,10.1-14.2Z"/>
  <path class="st2" d="M427,306.3c2.8-.7,5.8-.6,8.7-.6,8.7,0,17.3,0,26,0,3,0,6.4,0,9.2,1,2.7,1.1,3.9,4.8,1.6,7-1.7,1.1-4.1,1.2-6.1,1.5-12.6-.8-25.4-.7-38-.2-1.2-.4-2.4-.8-3.5-1.5-2.1-2-1-6.6,2-7.1Z"/>
  <path class="st7" d="M428.5,314.9c12.6-.5,25.4-.6,38,.2-2.5,3.9-6.6,3.3-10.7,3.8-10.3.4-20.4,0-30.5,2.3,1-2.1,2-4.3,3.3-6.3Z"/>
  <path class="st2" d="M425.8,325.4c4.6-.2,9.3.6,13.9.5,8.6-.1,17.2.1,25.9-.4,2.1,0,5-.4,6.8.7,2.7,2.6.9,7-2.5,7.9-5.2,1.2-11,.7-16.3.9-8.3.1-16.7-.4-25,.2-1.7-1.3-3.7-2.6-4.9-4.4-1.2-1.8-.5-5.4,2.1-5.4Z"/>
  <path class="st7" d="M428.6,335.2c8.3-.6,16.7-.1,25-.2,1.5.6,3,1.4,4.5,2.2-11.1,2.9-22,.2-32.8,4,1.1-2,2.1-4,3.3-5.9Z"/>
  <path class="st2" d="M431.7,344.8c10.7.3,21.4,0,32-.2,2.4,0,5.2-.1,7.5.6,2.8,1.8,2.4,7.2-1,8.1-4.3.9-9.1.4-13.5.5-8.3,0-16.7.5-25,.4-2.2-.1-5-.1-6.9-1.4-2.3-1.8-2.6-5.2-.5-7.3,2.3-.7,5-.6,7.4-.6Z"/>
  <path class="st7" d="M431.7,354.9c6.1-.6,12.4-.2,18.5.5-4.2,3.6-8.5,2.3-13.5,2.9-4.1.3-7.6,1.8-11.5,3.1,1.7-2.5,3-6.4,6.5-6.4Z"/>
  <path class="st6" d="M43.7,358.6c1.4,11.7,2.1,24.6,6.9,35.4-.6.5-1.3,1-1.9,1.6-1.8-4.5-3.5-8.9-3.8-13.7-.6-7.7-1.3-15.4-1.2-23.2Z"/>
  <path class="st2" d="M424.1,365.3c4.1-.6,8.4-.1,12.6-.1,8.7,0,17.4,0,26-.3,2.4,0,5.1-.2,7.3.6,3.2,2.2,1.6,7.6-1.9,8.5-3.6.8-7.4.7-11,.8-9.8,0-19.8-.7-29.6.4-1.5-1.2-3.2-2.4-4.4-4-1.1-2-.6-4.3.9-5.9Z"/>
  <path class="st7" d="M427.6,375.2c9.8-1.1,19.8-.5,29.6-.4-3.8,4.4-8.2,3.3-13.4,3.6-6.3,0-12.6.9-18.8,1.8.9-1.7,1.7-3.4,2.7-5Z"/>
  <path class="st2" d="M424,385c5-1.1,10.6-.4,15.7-.5,6.7,0,13.3,0,20,0,2.8,0,5.9,0,8.6.7,2.9,2.5,1.8,7.5-2.1,8.2-6.7,1.1-13.8.2-20.5.4-6.5-.2-13.2.6-19.5-.4-3.8-.8-5.2-5.8-2.2-8.3Z"/>
  <path class="st6" d="M64.1,462.2c3.6,0,7.3.8,10.9,1.3,0,1.8-.1,3.5-.2,5.2,5.3,1.4,11,2,16.1,4,3.8,1.6,5.4,4.9,7.3,8.3-7.1-.3-14.3.4-21.4-.3-4.6-.5-8.9-2.6-11.1-6.9-1.7-3.5-1.9-7.8-1.6-11.6Z"/>
  <path class="st1" d="M75,463.6c13.6,1.6,27.1,3.1,40.7,4.8-.5,4-.9,7.5-4.2,10.3-3.8,3.7-8.5,2.5-13.3,2.5-1.9-3.4-3.5-6.7-7.3-8.3-5.1-2-10.8-2.6-16.1-4,0-1.8.2-3.5.2-5.2Z"/>
  <path class="st1" d="M454,463.8c0,3.6.6,7.6-1.4,10.9-1.6,2.6-4.2,5.1-7.2,6-3,.8-6.5.5-9.6.4-4.2-5.7-9.1-14.1-17.3-13.5,11.8-1.3,23.7-2.3,35.5-3.8Z"/>
  <path class="st6" d="M418.5,467.6c8.2-.6,13.1,7.8,17.3,13.5-8.1-.3-16.1.1-24.2-.3-3.8-.1-7.1-1.5-9.5-4.4-1.8-2-2-4.6-2.6-7.1,6.4-.5,12.7-1,19.1-1.8Z"/>
  <path class="st3" d="M378.7,471.8c3.3-.2,6.8-.7,10.1-.1l1.1,1.5c-2.9,1.4-6,1.5-9.2,1.4-8.9-.4-17.6.4-26.4-.9,8.1-1,16.2-1.1,24.4-1.9Z"/>
  <path class="st3" d="M155.6,472.6c6.4,0,12.9.8,19.3,1.4-8.2.6-16.2,1-24.4-.1,1.7-.9,3.1-1.3,5.1-1.3Z"/>
<script xmlns=""/></svg>
