<svg xmlns="http://www.w3.org/2000/svg" id="Layer_1" version="1.1" viewBox="0 0 830 995.5">
  <!-- Generator: Adobe Illustrator 29.8.1, SVG Export Plug-In . SVG Version: 2.1.1 Build 2)  -->
  <defs>
    <style>
      .st0 {
        fill: #d94286;
      }

      .st1 {
        fill: #128490;
      }

      .st2 {
        fill: #963b8c;
      }

      .st3 {
        fill: #ea8400;
      }

      .st4 {
        fill: #005e83;
      }

      .st5 {
        fill: #ffb200;
      }

      .st6 {
        fill: #280830;
      }
    </style>
  </defs>
  <path class="st4" d="M303,15.7c20,9,38,24,53,40,22.6,29.8,40.4,62.8,53,98,2,7,5,13,5,19,14-1,26,2,39,4l10-23c9-21,21-40,36-58l21-20c32.9-30.9,78.9-43.6,123-34,48,9,83.7,49.3,87,98,3,40.8-11.1,81-39,111l71,18c13,4,26,6,38,11,15.4,4.2,26.8,17.2,29,33l1,35v47l-1,28c0,8-3,15-9,21-6,8-17,13-26,17v336c0,12-5,24-13,32-7,5-14,10-21,13l-121,61-90,44-78,39c-7,4-15,8-23,9-7,2-14,0-21-2l-40-16c-13-4-25-10-38-15l-98-40-61-25-105-44c-9-4-19-7-27-13-7-5-13-12-15-20l-3-21v-329l-4-2c-10-4-20-9-27-18-5-7-8-16-8-25l-1-86c0-28,0-14,1-20,1-10,5-20,13-26,9-8,22-11,33-15l106-32c3-1,7-1,9-3l-20-16-14-15c-27.1-33.3-35.4-78.2-22-119C122,45.7,165,11.7,213,2.7c30-6,62-2,90,12v1Z"/>
  <path class="st1" d="M239,33.7c24-1,48,7,68,21,18,12,33,28,45,46,13,21,21,43,29,67l4,14c-15,7-29,18-39,31l-4-14-11-24c-12-23-28-42-48-58-16-13-34-22-52-29-17-7-36-10-54-8-11,0-20,4-29,9l-10,7,3-5,16-21c21-22,51-35,82-36Z"/>
  <path class="st1" d="M629,70.7c18,2,36,9,48,23,16,16,23,38,23,61-.6,30.9-12.7,60.5-34,83-25,26-60,42-95,50-33,8.5-67.1,11.5-101,9,3-5,7-4,11-5l58-14c24-8,49-17,69-33,12-8,22-18,28-32,6-13,7-27,5-41-3-12-9-23-18-32s-21-14-33-15c-10,0-19-1-28,2-24,6-42,23-56,42-18,23-28,49-38,76l-4,11c0-8,3-17,4-25,5-23,13-45,23-66,9-20,20-38,35-54,18-19,39-33,64-38,13-4,26-3,40-2h-1Z"/>
  <path class="st1" d="M206,112.7c3,0,3,2,3,4l8,30c12,31,34,57,61,75,17,12,35,17,53,24,4,1,2,7,3,10-25,1-48,1-73-4-29-5-58-15-82-32-9-7-19-16-27-25-17.8-19.8-24.9-47-19-73l14-6c10-4,19-7,29-8s20,1,30,5Z"/>
  <path class="st6" d="M239,123.7l5,3c31.9,16.7,56.3,44.9,68,79-35-15.5-61.6-45.4-73-82Z"/>
  <path class="st6" d="M592,153.7c10,4,16,12,18,22s1,20-4,29c-3,8-9,14-16,20h-7l-70-17,16-25c9-12,22-24,37-29,8-3,18-3,26,0Z"/>
  <path class="st1" d="M415,202.7c11,0,22,0,32,2-6.7,26.6-11.4,53.7-14,81-13,5-26,3-39-1-8-2-16-5-22-11s-4-13-5-19c-2-12,3-21,10-29,9-12,23-20,38-23Z"/>
  <path class="st1" d="M501,232.7l14,3c13,3,25,7,38,8-2,3-4,3-7,4-18,5-36,10-55,12l6-17,4-10Z"/>
  <path class="st5" d="M198,261.7c21,11,46,15,69,20l12,1-76,28-41,14c-9,4-15,13-16,23s1,21,1,32v96l-93-29-18-6c-7-4-9-11-9-18v-91c0-6,0-12,3-18,3-5,9-7,14-9l147-43h7Z"/>
  <path class="st2" d="M670,274.7l40,8-4,1,5,2-31,11-46,16h-1c0-2-1-2-2-1v1l-21-6c20-6,39-17,56-30,1-2,3-2,5-2h-1Z"/>
  <path class="st2" d="M706,283.7l4-1,5,2-4,1-5-2Z"/>
  <path class="st5" d="M715,284.7c10,1,18,4,28,6l36,9c6,1,13,2,19,6,5,4,8,11,7,17v84c0,6,1,11-2,16-1,4-5,7-9,8l-27,11-64,26v-33l1-66c-1-10,0-19-6-28-4-7-11-11-19-13l-45-15,46-16,31-11,4-2v1Z"/>
  <path class="st1" d="M347,291.7c6,7,13,11,22,14,10,3,20,7,31,7l-9,3c-37,13-73,28-110,40-7,2-14,5-19,10-6,8-9,18-9,28l1,75,1,41-30-9-49-15-1-61-1-65c0-6,3-11,7-14,7-4,14-6,21-8l136-46c3-1,6-4,8-1v1h1Z"/>
  <path class="st3" d="M798,309.7c4,2,5,7,5,12v89c0,4,0,9-2,13l-11,7-31,12-34,14-19,7v-79l-1-28-3-15,46-16,45-16c1,0,3-2,5,0Z"/>
  <path class="st0" d="M631,310.7c1,0,2,0,2,2l-2-1v-1Z"/>
  <path class="st1" d="M567,317.7c28,10,55,19,83,27s14,4,19,8c5,5,5,12,5,19,1.1,35.7,1.1,71.3,0,107-6,4-13,6-19,8l-31,12v-55l1-58c-1-11-3-21-10-29-7-7-16-9-25-12l-53-18c-3-1-6-1-9-4,13,0,26-3,40-5h-1Z"/>
  <path class="st5" d="M452,323.7l56,19,71,23c6,2,11,4,14,9,5,7,4,14,4,22l-1,112-60,21-56,20-34,12c-3,1-6,2-10,1l-19-5-124-38c-3-1-10,0-9-5v-122c-1-7,4-14,11-17l27-9,118-42c4-1,8-3,12-1Z"/>
  <path class="st3" d="M592,376.7c4,7,3,14,3,21v110l-96,33-58,20v-132c18-5,35-12,53-18,33-11,65-23,98-33v-1Z"/>
  <path class="st2" d="M770,471.7v335c0,2-2,3-4,4l-20,10-52,25v-343l11-4,65-27Z"/>
  <path class="st2" d="M69,480.7l11,4,77,25v34l-37-11-33-11c-6-2-13-3-19-6l1-35Z"/>
  <path class="st5" d="M68,515.7c6,3,13,4,19,6l33,11,37,11v202c0,36,1,72-1,107l-54-22-26-11c-6-2-8-9-8-14v-290Z"/>
  <path class="st1" d="M665,515.7v232l1,112-19,9-38,18v-349l30-12,26-10Z"/>
  <path class="st1" d="M186,518.7l73,24v352l-57-22-16-7v-347Z"/>
  <path class="st3" d="M581,545.7v35l-1,5v197l-1,118-16,8c-7,4-15,6-22,11-10,5-21,9-31,15l1,2-8,3c-4-1-8,2-11,4l-29,13c-7,3-11,7-19,8v-335l17-5,27-10,26-9c12-3,23-8,34-12l30-10-7,1-63,22-26,9-33,12c-4,1-8,0-12-1l-78-23-72-21v324l-1-13,1-346,130,40,22,5c7,0,15-4,22-6l117-40,3-1Z"/>
  <path class="st5" d="M287,581.7l72,22,78,23c4,1,8,2,12,0l33-11c9-3,17-7,26-9l63-22,7-1-30,10-34,12-26,9-27,10-17,5v335c8-1,12-5,19-8l29-14c3-1,7-4,11-3l-46,23c-5,2-9,4-14,4l-12-3-144-57v-325Z"/>
  <path class="st5" d="M581,580.7v322c-23.6,10.7-47,22-70,34l-1-2c10-6,21-10,31-15,7-5,15-7,22-11l16-8v-315l2-5Z"/>
  <path class="st0" d="M367,648.7c4,0,7,1,10,4l25,36,25,35c2,3,2,6,2,9-1,8-11,13-18,8-6-5-11-13-16-19l-23-32c-2-2-4-4-7-4s-4,2-5,3c-11,8-20,20-32,27-10,6-22-7-18-17,1-6,6-9,10-13,13-10,25-20,36-31s6-6,11-6Z"/>
  <path class="st5" d="M524,651.7c2,2,5,3,3,6-3-3-7-8-12-8-5-1-7,4-10,7l-42,59c-4,5-8,12-4,17-3,2-2-1-3-3-1-6,2-11,5-15l40-56c2-3,6-8,10-10,5-2,9,0,13,3Z"/>
  <path class="st2" d="M515,649.7c5,0,9,5,12,8l4,4c5.5,4.4,10.9,9.1,16,14l10,9,4,4c3,3,6,8,7,13-1,6-6,12-12,13-6-1-10-4-14-8l-2-2,1-1c4,3,7,7,12,8,7,1,15-7,11-14-2-6-7-10-12-14l-20-19c-5-4-10-10-15-13-5-1-9,3-11,6l-34,49-10,13c-2,4-2,7-2,10s4,5,7,6,7,0,10-3c5-4,8-10,12-14h2c-5,7-10,17-18,19-6,2-9,0-14-3v-2c-5-5,0-12,3-17l42-59c3-3,6-8,11-7Z"/>
  <path class="st0" d="M517,652.7c6,2,10,8,15,12l21,19c4,4,9,8,12,14,3,7-5,15-12,14-4-1-8-5-12-8l-1,1-6-5c1-3-1-3-3-5l-11-9c-2-2-6-1-8,1l-11,15c-3,4-6,7-8,12l1,2-3,4-2-1c-4,5-7,11-12,15-3,2-6,4-10,3-3-1-6-3-7-6,0-4,0-7,2-10l10-14,34-48c3-3,6-8,11-6Z"/>
  <path class="st5" d="M535,661.7l8,8v2l-12-10h4Z"/>
  <path class="st5" d="M551,676.7l7,6-1,2-10-9,4,1Z"/>
  <path class="st2" d="M520,685.7c4,2,8,5,11,9,2,1,4,2,3,5-5-4-9-10-15-13-4-1-7,3-9,5l-17,23v-2l8-11c3-5,6-11,11-15,2-2,6-3,8-1Z"/>
  <path class="st5" d="M519,686.7c6,3,10,9,15,13l6,5v2c-8-5-13-12-20-17-3-2-6,0-8,3l-14,19-17,23c-3,4-8,6-13,6s-8-2-8-6c4,3,8,6,13,4,8-3,13-13,18-20l2-4,17-23c2-2,5-6,9-5Z"/>
  <path class="st5" d="M567,692.7c2,4,3,7,2,11-2,9-11,15-19,11-3-1-9-4-8-8,4,4,8,7,14,8,6-1,11-7,12-13-1-5-4-9-7-13,3,0,4,2,6,4Z"/>
  <path class="st0" d="M361,774.7c5,0,8,3,11,6l38,48,17,23c2,3,2,9,1,12-2,5-7,8-12,7-6,0-10-5-14-10l-27-34-10-13c-3-2-6-2-9-2l-26,23c-3,2-6,5-10,6-8,1-16-8-14-17,3-8,11-14,18-20l25-22c4-3,7-7,12-7Z"/>
<script xmlns=""/></svg>
