<svg xmlns="http://www.w3.org/2000/svg" id="Layer_1" version="1.1" viewBox="0 0 914.1 909">
  <path fill="#351a72" d="M427.2.7c29.5-1.3,59.2-.8,88.6,2.6,27,3.5,53.8,9,79.9,17,31.6,10,62.2,23.7,91,40,16.1,9.6,32,19.8,47.1,30.9,18.1,13.7,35.4,28.5,51.2,44.8,8.8,8.6,16.7,17.9,24.9,27.1,25.5,30.4,46.8,64.6,63.3,100.7,4.6,10.5,9.1,21.2,13.1,31.9,6.6,18.8,12.6,37.9,16.7,57.4,6.3,27.7,10.1,56.2,10.6,84.7.7,13,.9,26,0,39-.6,18.5-2.7,37-5.9,55.2-2.2,13.6-5.2,27-8.8,40.3-8.1,28.9-18.4,57.4-31.6,84.3-24.8,49.3-59.3,93.8-99.9,131.2-33.8,31.3-72.4,57.1-113.9,77.1-56.3,26.9-117.8,41.5-180.1,44-45.7,1.4-91.4-3.6-135.6-15.5-29.2-7.9-57.8-18.7-85-32-28.6-14.3-55.8-31.3-80.8-51.2-17.5-13.9-34.5-28.9-49.5-45.5-29.3-31.7-54.9-67.3-73.9-106.1-21-42.1-35.7-87.4-43-133.9-9-57.4-6.5-116.1,5.7-172.9,2.5-12.6,6.3-24.9,9.8-37.2,5.3-17.1,11.5-33.8,18.9-50.1,25.5-57.7,64.3-109.7,111.6-151.4,16.4-14.7,34.1-27.4,52.6-39.4,38.8-25,81.3-43.7,125.6-56.4,15.8-4.4,31.9-7.8,48.1-10.8,16.4-2.6,32.9-4.6,49.5-5.7Z"/>
  <path fill="#43198a" d="M484.1,39.5c22.5,1,44.8,4.4,66.7,9.5,20.9,5.2,41.3,11.8,61.6,19-8.3,7-17.3,13.2-25.5,20.4-4.6,3.9-8.8,8.3-13.5,12-4.4-.6-8.8-.9-13.2-.8-16,.2-32,0-48,0-8,.5-16,1.1-24,1.1-25.6,1.5-51.5,2.9-76.9,6.2-3.8.3-8.3,1.3-11.9-.5-2.9-1.4-5.6-3-8.4-4.6-3.8-2.4-7.6-4.9-11.1-7.8-17.5-13.8-36.4-24.4-55.6-35.2,12.8-4.2,25.9-7.3,39-10.1,16-3.4,32.5-5.4,48.8-7.4,24.1-2.2,47.9-3.8,72.2-1.8Z"/>
  <path fill="#fff" d="M285,81.9c28.3,12.3,54.4,30.1,77.4,50.5-14.3,21.2-26.9,43.4-40,65.4-9.6,16.8-19.1,33.7-28.2,50.8-1.8,3.3-3.7,6.2-7.6,7.4-34.9,10.9-68.3,24.2-102.2,37.9-13.1,5.4-26,11.4-39.1,17.1-8.5-7.9-17-16.1-24.1-25.3-9-11.8-17-24.3-23.4-37.7-.7-1.9-1.7-3.4-.7-5.4,2.7-5.6,6.5-10.8,9.8-16.1,17.7-26,37.8-50.7,60.6-72.4,17.9-16.5,36.4-31.9,56.9-45.1,14.5-9.7,29.7-18.2,45.6-25.4,5-2.1,9.6-4,15-1.6Z"/>
  <path fill="#fff" d="M653.1,89.7c3.9.8,7.6,3.2,11.1,5,19,10.7,37.5,22.7,54.2,36.6-7.3-2.5-11.7-7.7-17.9-11.9-13.3-9.5-27.6-18.3-42.1-26-2.9-1.6-5.3-1.8-8.5-1.4,9.2,11.2,19,21.8,27.9,33.1,8.7,10.9,17.9,21.9,25.3,33.7,8,12.4,16.5,24.5,23.4,37.6,14.1,26.9,25.7,56.9,29.5,87.1,7,2.3,14.1,4.1,21.1,6.3,12.8,4.2,25.5,8.6,38.2,13.1-3.8,1.1-6.9-.6-10.5-1.8-16.1-6.1-32.6-11.2-49.1-15.9-18.1-5.4-36.5-10.2-55.1-13.9-2.3-.6-4.7-.8-6.1-3-3.1-4.7-5.3-10-8-14.9-22.9-44.8-49.1-87.7-79.6-127.8,10.8-12.3,23.9-22.5,37.4-31.7,2.6-1.6,5.6-4,8.8-4.2Z"/>
  <path fill="#a2a6cc" d="M658.5,93.4c14.5,7.7,28.7,16.5,42.1,26,6.2,4.2,10.7,9.4,17.9,11.9,2.2,1.6,4.2,3.3,6.2,5.1,3.2,5,7,9,12.9,10.8,4.2,3.6,8.4,7.1,12.2,11.1,1.4,2.5,2.9,4.9,5,6.9,4.6,4.2,8.2,8.9,13.8,11.9,7.5,7.6,15,15.6,21.1,24.4,2.2,6.2,6.6,10.3,10.3,15.5,11.4,16,22,32.6,30.9,50.1,1.2,2.7,2.3,5.3,1,8.2-2.9,6.8-7.6,13.2-12,19.1-1.5,2-2.3,4.3-3,6.7-.5.6-1,1.2-1.5,1.7-12.7-4.5-25.4-9-38.2-13.1-7-2.2-14.1-4-21.1-6.3-3.8-30.2-15.4-60.2-29.5-87.1-6.9-13.2-15.3-25.2-23.4-37.6-7.4-11.8-16.7-22.8-25.3-33.7-8.9-11.3-18.7-22-27.9-33.1,3.2-.4,5.6-.2,8.5,1.4Z"/>
  <path fill="#43198a" d="M512.2,99.7c16-.1,32,.1,48,0,4.5,0,8.8.2,13.2.8-6.1,1.8-12.7,0-19.2,0-12.8,0-25.7-.2-38.5.7-9.1.7-18.2,0-27.3.8-23.1,1.3-46.3,2.8-69.3,5.4-5.5.6-11.3,1.7-16.9,1.3-4.6-.2-7.8-4.2-11.2-6.8,2.8,1.6,5.5,3.3,8.4,4.6,3.5,1.8,8.1.9,11.9.5,25.4-3.2,51.3-4.7,76.9-6.2,8.1,0,16-.6,24-1.1Z"/>
  <path fill="#a2a6cc" d="M724.7,136.4c4.5,3.4,8.7,7,12.9,10.8-5.8-1.8-9.7-5.8-12.9-10.8Z"/>
  <path fill="#fff" d="M569.7,141.2c2,1.2,3.6,3.2,5,5,9.5,12.3,18.6,24.9,27.3,37.7,19,28.8,36.5,58.7,52.8,89.2,1.3,2.8,3.4,6.2,3.3,9.4-1.3,3.8-4.4,7.1-6.6,10.4-24.2,33.1-48.7,66-72.7,99.3-.9,1.1-1.8,2.3-3,3-2.7.7-5.7.5-8.5.6-9.4,0-18.7,1-28,.9-6.3,0-12.7.4-19,.7-9.7.5-19.3.1-29,.4-12.7.4-25.3,1-38,.9-8.4,0-16.8.2-25.2.8-3.3.1-7.1.6-10.3-.3-3.5-2.7-5.8-7.1-8.5-10.6-12.4-16.3-24.2-33.1-36.7-49.3-12.4-16.9-25.2-33.4-37.9-50.1-2.6-3.4-5.5-6.6-7.9-10.2-.7-1.2-1.7-2.7-1.2-4.1,1.2-4.3,3.7-8.3,5.7-12.3,3.8-7.5,7.6-15,11.8-22.2,14.9-27.6,30.7-54.5,49.1-79.9,3.1-4,5.7-9.2,9.7-12.3,6.5-1.7,13.8-1.3,20.5-1.5,9,.3,18-1.1,27-1,8,0,16,.2,24.1-.6,9-.8,17.9,0,26.9-.8,9.3-.9,18.7-.6,28-1.5,10.1,0,20-1,30.1-1.3,3.7,0,7.8-1,11.5-.4Z"/>
  <path fill="#a2a6cc" d="M749.7,158.3c6.6,5.9,13,12.1,18.8,18.8-5.5-3.1-9.2-7.8-13.8-11.9-2.1-2-3.6-4.4-5-6.9Z"/>
  <path fill="#a2a6cc" d="M789.6,201.5c5.8,6.6,10.9,13.7,16,20.9,10.3,15,20.4,30.6,28.1,47.1,2,4.1-.4,6.9-2.2,10.5-4.4,7.3-9.1,14.6-14.6,21.2.7-2.4,1.5-4.7,3-6.7,4.4-6,9.1-12.3,12-19.1,1.3-2.9.3-5.5-1-8.2-8.9-17.5-19.5-34.1-30.9-50.1-3.7-5.2-8.1-9.3-10.3-15.5Z"/>
  <path fill="#4d1a95" d="M73,288.5c7,9.7,14.1,19.3,22.3,28.1,7.6,8.9,16.4,16.5,24.2,25.1-6.3,22-11.6,43.8-13.7,66.7-1.2,12.7-2.7,25.5-2.7,38.2.1,9.7-.1,19.4.1,29,.6,13,2,26,4.2,38.8.3,2.8,1.2,6.3-.8,8.8-2.8,3.8-6.5,6.9-9.4,10.5-14.5,17.4-26.1,37.7-36.1,58-14.8-37.7-21.5-77.7-22.2-118.1-.4-18.6-.4-37.5,1.3-56,3-37.2,10.9-73.9,24-108.9,2.8-6.8,5.5-13.7,8.7-20.3Z"/>
  <path fill="#4d1a95" d="M293.9,295.8c12.4,18.5,25.6,36.5,38.5,54.7,10.1,13.9,20.1,27.8,30.5,41.5,7.9,11,16.5,21.4,24.3,32.5-25.1,40.6-49.6,82.3-76.8,121.5-3.6,5.4-7.2,10.9-11.4,15.9-6.5-.8-13-2.1-19.4-3.6-15.4-3.2-30.7-6.8-45.8-11.2-29-8-57.2-19.5-84-33-2.7-1.5-6.8-3.1-7.1-6.6-1-6.2-.9-12.5-1.4-18.8-1.9-23.8-1.2-47.3.7-71.1,2.3-22.8,5.3-45.1,10.7-67.4,13.5-5.2,26.4-11.7,39.7-17.4,7.8-3.2,15.7-6.2,23.4-9.6,15-6.6,30.2-11.8,45.6-17.4,10.8-3.6,21.7-6.8,32.6-10Z"/>
  <path fill="#4d1a95" d="M689.7,304.3c4.5,0,9.2,2.1,13.5,3.4,31.1,9.5,63.3,18.5,93.4,30.6,5.2,2,10.2,3.6,14.9,6.7-3.3-.8-6.5-1.7-9.6-2.9-11.1-4.7-22.5-9.5-34.2-12.5,0,5.3.8,10.8,1.3,16.1,1.3,11.1,1.4,22.7,1.5,33.9,0,18.2.3,35.9-1.4,54.1-1.6,22.6-5.3,44.9-9.7,67.1-2.5,11.6-5.9,23.1-8.3,34.7,6.9-2.1,13.3-5.3,20.3-6.8-24.6,11.8-50.9,20.2-77.3,27-4.8-6.1-8.6-12.8-12.7-19.4-14.3-23.3-28.4-46.8-42.9-70-7-11.7-14-23.4-20.9-35.1-2-3.6-5.2-7.3-6.1-11.4,1.6-4.4,5.2-8.1,7.8-12,21.4-30.4,42.1-61.3,62.8-92.2,2.6-3.7,4.5-8,7.6-11.3Z"/>
  <path fill="#4d1a95" d="M854.1,322.7c3.3,7.1,5.1,15.1,7.5,22.6,8,25.7,11.6,52.6,13.4,79.4.3,11.7.4,23.4.2,35,.2,24.4-2.6,49.2-8.1,73-3.2-4.2-6.3-8.4-9.4-12.6-1.7-2.6-3.5-4.9-3.3-8.2.3-4.6,1.4-9.3,2.1-13.9,7.6-49.2,4.5-100.2-7.2-148.6-1.2-5.5-3.8-11-4-16.6,1.1-4.1,5.6-7.5,8.7-10.2Z"/>
  <path fill="#43198a" d="M767.7,329.7c11.7,3,23,7.8,34.2,12.5,3.1,1.3,6.3,2.2,9.6,2.9,2,5.2,2.8,10.9,4,16.4,2.6,11.9,4.5,24,6,36.1,3.3,34.1,2.2,68.2-2.1,102.2-.4,1.9-.7,3.6-2.2,4.8-3.1,2.6-6.9,4.5-10.3,6.6-7.2,4.3-14.6,8.1-22,12-4.3,2.3-8.6,4.1-13.2,5.6-7.1,1.5-13.5,4.7-20.3,6.8,2.4-11.6,5.8-23.1,8.3-34.7,4.5-22.2,8.1-44.5,9.7-67.1,1.7-18.1,1.4-35.9,1.4-54.1-.1-11.2-.2-22.8-1.5-33.9-.6-5.3-1.4-10.8-1.3-16.1Z"/>
  <path fill="#fff" d="M575,437.7c2.6,3.8,5.1,7.7,7.5,11.7,5.8,9.8,11.9,19.5,17.6,29.4,17.8,29.4,36.1,58.5,54.2,87.8,2.4,3.9,5.3,7.7,7.2,11.8,1.2,2.2,0,4.9-.7,7.1-18.2,44.9-42,86.8-69.5,126.5-1.9,2.6-3.9,5.9-7.2,6.7-4.4,1.3-9,1.8-13.5,2.5-15.1,2.4-30.2,3.5-45.4,4.5-19,.4-38,.3-57,.1-8,0-16,.2-24-.7-11.6-.6-23.3-1.3-34.9-2.5-3.2-.3-5.2-1.2-7.1-3.8-7.6-10.5-14.1-22.1-20.7-33.3-9.3-16.3-17.9-33-26-50-6.4-12.9-12.1-26.2-17.6-39.4-.9-2.5-2.3-5.4-2.3-8.2.5-2.4,1.9-4.7,3-6.8,9.4-16.8,19.1-33.5,29.1-50,16.2-27.4,33.2-54.2,49.5-81.5,1.5-2.4,3-5,4.9-7,1.2-1.3,3.5-1.2,5.1-1.4,15-.6,30,0,45.1-.4,14.3-.4,28.7.4,43-.8,8-.6,16,0,24.1-.6,4.7-.3,9.3-.7,13.9-.7,7.3,0,14.6-1.1,21.9-1.1Z"/>
  <path fill="#a2a6cc" d="M825.4,544.6c4,3.6,7.1,8.3,10.1,12.8,6,9,10.6,18.7,14.3,28.8,1.1,3.4,2.5,6.5,1.2,10.2-1.7,5.1-4.3,9.8-6.3,14.8-5.8,13.8-12.4,27.2-19.7,40.3-5.3,9.1-10.2,18-16.3,26.5,1.3-4.6,3.5-8.5,6.3-12.5,11.3-18.3,21.2-37.6,29.4-57.6,2.3-6,7.2-12.2,4.6-18.9-4.2-12.5-10.2-24.5-17.8-35.2-1.8-2.5-3.8-4.9-6-7-5.5,2.1-10.1,5-15.3,7.7-15.2,7.5-30.4,14.7-46.2,20.8-18.1,6.5-36.1,13.2-55,16.9-2.8.8-7.2,1.3-8.6,4.4-2.4,4.8-3.8,10.1-5.9,15.1-17.4,42.6-40.9,83.2-67,121-1.6,2.4-3.1,4.8-4.7,7.2,5.9,12.5,13.1,24.5,20.4,36.3,7.5,11.4,14.8,22.7,23.6,33.2,12.7-5.7,24.5-13.7,35.8-21.6,17.1-12.3,33.4-25.9,48.2-40.8,3.8-4,7.2-8,12-10.8-9.3,11.2-20.3,21.1-31.1,30.7-20.2,17.2-41.4,32.7-65.1,44.9-7.8-9.4-14.6-19.4-21.3-29.6-8.9-13.7-17.2-27.7-24.6-42.3,29.5-41.7,55.8-86.9,74.6-134.5,1.4-3.6,2.5-7.4,4.3-10.8.9-2.1,3.8-2.6,5.8-3.2,27-5.8,53.5-15.2,78.8-26.2,14.3-6.1,27.8-13.7,41.8-20.5Z"/>
  <path fill="#a2a6cc" d="M825.1,546.7c2.2,2.1,4.2,4.5,6,7,7.6,10.7,13.6,22.7,17.8,35.2,2.6,6.7-2.3,12.9-4.6,18.9-8.2,20-18.1,39.2-29.4,57.6-2.7,3.9-4.9,7.8-6.3,12.5-4.1,7.1-9,13.9-14.2,20.2-1.8,1.5-3.7,2.8-5.3,4.5-2.5,2.8-3.9,6-5.7,9.2-.4.4-.7.9-1.1,1.3-2.2,1.8-4.5,3.2-6.3,5.5-1.5,1.9-2.4,4.1-3.5,6.3-3,4.1-6.4,7.8-10.2,11.2-4.8,2.9-8.2,6.9-12,10.8-14.8,14.9-31.1,28.5-48.2,40.8-11.4,7.9-23.1,16-35.8,21.6-8.8-10.5-16.1-21.8-23.6-33.2-7.3-11.8-14.5-23.8-20.4-36.3,1.5-2.4,3.1-4.9,4.7-7.2,26.2-37.8,49.6-78.4,67-121,2.2-4.9,3.5-10.3,5.9-15.1,1.3-3,5.7-3.6,8.6-4.4,18.9-3.8,36.9-10.4,55-16.9,15.8-6,31.1-13.3,46.2-20.8,5.2-2.7,9.8-5.6,15.3-7.7Z"/>
  <path fill="#fff" d="M131.6,552.2c1.6-.3,3.5.6,5,1.1,20.4,8,40.8,15.7,61.6,22.5,29.9,9.8,60.1,18.7,90.9,25.1,3,.7,6.6,1.2,9.3,2.8,2.2,2.1,3.4,5.5,4.7,8.3,17,38.8,36.5,76.4,58.2,112.8,2.6,4.2,5,8.5,7.2,13-2.8,4-5.9,7.7-9,11.5,2.1-4.3,4.4-8.5,6.9-12.6-21.4-1.8-42.5-5.4-63.3-10.6-18.2-4.8-35.9-10.8-53.4-17.6-19-7.5-36.8-17.2-54.3-27.6-16-9.7-31-20.8-45.6-32.4-7.7-6-14.7-12.5-21.9-19.1-9.2-8.3-18.2-16.9-26.7-25.9-4.4,9-8.1,18.4-11.9,27.7-1.1,3.2-3.1,7.6-2,11,1.3,3.9,3.8,7.5,5.8,11.1,5.4,9.8,10.9,19.5,17.1,28.8,3.1,4.1,5.9,8.1,7.6,13-11.4-14.1-20.3-30.7-29.2-46.5-1.3-2.4-2.8-5-3.4-7.7-.3-2.7.8-5.6,1.7-8.1,3.2-8.9,7.2-17.5,10.9-26.1,7.4-16.2,15.7-33.2,26.8-47.2,2.1-2.5,4.2-5.2,7-7Z"/>
  <path fill="#a2a6cc" d="M101.2,603.1c8.5,9,17.5,17.5,26.7,25.9,7.2,6.6,14.3,13,21.9,19.1,14.6,11.7,29.6,22.8,45.6,32.4,17.5,10.5,35.3,20.2,54.3,27.6,17.5,6.8,35.2,12.9,53.4,17.6,20.8,5.3,41.9,8.9,63.3,10.6-2.5,4.1-4.8,8.3-6.9,12.6-2.3,3.7-4.9,7-7.9,10.1-2.3,1.7-4.6,3.1-6.5,5.3-1.9,2.2-3,4.7-4.4,7.3-.4.5-.8.9-1.2,1.4-4,2.7-7.3,5.7-10.5,9.3-5.8,6.4-12.4,11.2-17.3,18.4-.4.4-.8.7-1.3,1.1-4.8,2.3-7.8,4.5-10.7,9-.5.4-.9.8-1.4,1.1-3,1.5-5.9,3-8.6,5.1-4.8,3.7-9.8,7-14.7,10.5-22.1-9.5-43-23.3-62.4-37.5-4.4-3.5-8.4-7.1-13.8-9-7.6-5.3-14.5-11.7-21.1-18.2-1.8-2.8-3.7-5.5-6.1-7.7-16-15-30.6-31.6-44-49-2.3-3-4.6-6.5-7.4-9-.4-.3-.9-.5-1.3-.8-.4-.6-.7-1.1-1.1-1.7-1.7-4.9-4.6-8.9-7.6-13-6.2-9.3-11.8-19.1-17.1-28.8-2-3.6-4.5-7.2-5.8-11.1-1.1-3.4.9-7.8,2-11,3.8-9.3,7.5-18.7,11.9-27.7Z"/>
  <path fill="#a2a6cc" d="M120.2,697.2c2.9,2.5,5.1,6,7.4,9,13.3,17.4,28,34,44,49,2.5,2.3,4.3,4.9,6.1,7.7-7.1-5.9-13.3-12.5-19.8-19.1-12-12.2-22.7-25.3-33.2-38.8-2.1-2.8-4.1-5.7-5.9-8.6.4.2.9.5,1.3.8Z"/>
  <path fill="#a2a6cc" d="M794.4,698.1c-3.3,4.9-6.8,9.5-11,13.7,1.8-3.2,3.2-6.5,5.7-9.2,1.6-1.8,3.5-3,5.3-4.5Z"/>
  <path fill="#a2a6cc" d="M782.3,713.2c-2.8,4.4-6.1,8.1-9.8,11.8,1.1-2.2,2-4.4,3.5-6.3,1.8-2.2,4.1-3.7,6.3-5.5Z"/>
  <path fill="#a2a6cc" d="M351.5,759.2c-3.3,4.6-6.8,8.7-10.9,12.6,1.4-2.5,2.5-5.1,4.4-7.3,1.9-2.2,4.2-3.7,6.5-5.3Z"/>
  <path fill="#4d1a95" d="M409.6,759.2c18.6,3,37.5,4.8,56.3,6,11.2,1,22.1.5,33.3.6,18.2.3,36.5-1.1,54.6-3.4,9.8-1.2,19.4-3,29.2-3.7,12.4,17.6,23.6,36.4,36.7,53.5,4.8,6.4,10.3,12.1,14.8,18.7-14.6,8.4-30.9,14.3-46.9,19.5-18.3,6-37.1,10.3-56,13.9-13.8,2.6-27.7,3.9-41.8,5.2-14,.8-27.8,1.8-41.8,1.3-19.6-.9-39.1-2.3-58.5-5.4-12.5-2.1-24.9-4.6-37.1-7.8-11.7-3.1-23.2-6.1-34.5-10.5,15.4-15,32.2-29.1,47-45.3,12.9-12.8,24.5-26.9,36.6-40.4,2.3-2.7,4.8-2.4,8-2Z"/>
  <path fill="#a2a6cc" d="M339.3,773.2c-5.4,7-11.7,12.5-17.9,18.9-3.1,3.2-6.4,6-9.9,8.8,4.9-7.1,11.5-12,17.3-18.4,3.2-3.6,6.5-6.6,10.5-9.3Z"/>
  <path fill="#a2a6cc" d="M212.6,790.2c19.4,14.2,40.3,27.9,62.4,37.5,4.9-3.5,9.9-6.8,14.7-10.5,2.6-2.1,5.6-3.6,8.6-5.1-6.9,6.6-15.4,11.8-23.2,17.5-19.7-8.7-38.4-20.3-55.9-32.8-7-4.9-13.8-10-20.3-15.6,5.4,1.9,9.4,5.6,13.8,9Z"/>
  <path fill="#a2a6cc" d="M310.3,801.9c-3.3,3.5-6.6,6.3-10.7,9,2.9-4.5,5.9-6.7,10.7-9Z"/>
</svg>
