<svg xmlns="http://www.w3.org/2000/svg" id="Layer_1" version="1.1" viewBox="0 0 486.2 651.5">
  <path fill="#2e2a40" d="M219.2.4c27.6-1.4,55.4.7,81.9,8.8,23.3,7.3,43.8,23.2,58.7,42.3,15.9,20.4,25.4,45.7,26.4,71.6.4,15.5-1.3,31-4.3,46.2-4.9-1.3-9.6-2.2-14.7-1.3-10.2,1.7-19.6,8.2-26,16.1-3.1,3.7-4.8,8-6.6,12.5-.9,2-1.8,4.5-4.5,4.3-6.7-.6-12.8-5.4-15.1-11.7-1.8-5-1.6-10.7-1.4-15.9.5-10.1.5-20.2.6-30.3,0-6-1-12-3.5-17.6-2.9-6.6-8.5-11.8-15-15-8.6-4.2-18-5.7-27.6-5.5-15.6-.5-30.5,3.2-46,3.1-18.1-.3-35.8-3.7-53.1-8.9-9.5-2.5-19.1-6.8-28.7-7.5-8.4-.6-16.8.8-23.9,5.6-7.9,5.1-12.7,13.6-15.8,22.3-4,11.1-5.2,22.2-6.7,33.8-1.6-5.5-2-11-2.5-16.7-1.5-17.1.2-34.3,5.7-50.6,7.8-23.9,22.8-45.1,43.3-59.7C163.5,9.8,191.3,2.4,219.2.4Z"/>
  <path fill="#953f22" d="M140.4,91.8c9.6.7,19.2,4.9,28.7,7.5,17.3,5.2,35,8.6,53.1,8.9,15.5,0,30.4-3.6,46-3.1,9.6-.2,19,1.3,27.6,5.5,6.4,3.2,12.1,8.4,15,15,2.5,5.5,3.5,11.5,3.5,17.6,0,10.1-.1,20.2-.6,30.3-.1,5.2-.4,10.9,1.4,15.9,2.3,6.3,8.4,11.1,15.1,11.7,2.7.2,3.6-2.3,4.5-4.3,1.7-4.4,3.5-8.8,6.6-12.5,6.4-7.9,15.8-14.4,26-16.1,5.1-1,9.8,0,14.7,1.3,4.2,3.8,8.1,7.3,10.6,12.5,5,10.3,5.6,21.1,4.8,32.3-1.2,14.8-8.2,28.9-19.5,38.5-6.5,5.4-14.4,9.6-22.8,11.2-5.5,1-10.5-.3-15.8-1.7-2.3,3-3.4,6.3-5.2,9.7-5.1,9.7-11,19-17.3,27.9-2.6,1.6-3.5,4.9-5.5,7.3-15.8,20.6-37.7,36.6-62.4,44.6-19.6,6.2-40.9,8.1-61.1,3.9-8.9-1.8-16-5.9-24.5-9.6-4.7-2.5-8.6-5.9-13.2-8.5-1,1.9-2,3.8-3.5,5.4,0-2.8.1-5.7-.6-8.4-2-2.9-5-5.1-7.4-7.6-19.3-18.2-31.8-43.3-38.2-68.8-3.6-14.3-5-29.4-6-44.1-1.2-14.3-1.1-28.6-.9-43,0-5.9.9-11.8.8-17.7,1.5-11.6,2.7-22.7,6.7-33.8,3.1-8.6,7.9-17.1,15.8-22.3,7.1-4.8,15.5-6.3,23.9-5.6h-.3Z"/>
  <path fill="#692219" d="M316.7,299.8c-.8,4.5-1.9,8.7-1.9,13.3,0,8.4,2.8,16.7,8.6,22.8-5.5,11.9-14,22.8-22.9,32.4-3.1,3.4-6.3,6.7-9.9,9.6-15.7,7.9-32.9,11.4-50.3,12.4-14.2.5-28,.5-41.9-3.3-8-2-15.4-5.5-22.5-9.5-3.5-2-6.8-4.5-9.5-7.5-2.8-3-4.4-7.3-5.7-11.1.2-4.5,1.2-8.8,2.6-13,8.6,3.7,15.7,7.8,24.5,9.6,20.2,4.2,41.5,2.3,61.1-3.9,24.7-8,46.6-24,62.4-44.6,2-2.5,2.9-5.7,5.5-7.3h-.1Z"/>
  <path fill="#2e2a40" d="M323.4,336c5.7,3.7,11.3,7.5,17,11.2-7.8,15.9-18.7,30.5-31.4,42.8-20.9,20.2-46,35.5-74.7,41.3-10.6,2.4-21.2,2.5-32,1.8-17.5-2-35.4-9.1-47.3-22.6-12.9-14.5-17.6-35-13.4-53.8,1.1-4.2,2.4-8.3,3.7-12.4l1-1.1c1.5-1.6,2.5-3.5,3.5-5.4,4.6,2.6,8.6,6,13.2,8.5-1.4,4.2-2.4,8.5-2.6,13-.8,9.5.2,18.8,4.4,27.4,4.6,9.5,12.9,16.5,22.6,20.4,8.4,3.4,17.7,4.9,26.7,5,21.8-.3,42.8-9.1,60.6-21.1,5.6-3.9,10.9-8,15.7-12.8,3.6-2.9,6.8-6.2,9.9-9.6,9-9.6,17.4-20.4,22.9-32.4l.2-.2Z"/>
  <path fill="#0093a5" d="M145.4,344.1c-1.4,4.1-2.6,8.3-3.7,12.4-4.2,18.8.4,39.3,13.4,53.8,11.9,13.5,29.8,20.6,47.3,22.6,10.8.7,21.4.6,32-1.8,28.7-5.8,53.8-21,74.7-41.3,12.7-12.3,23.6-26.9,31.4-42.8,7.7,4.6,15.3,9.3,23,14-15.8,29.4-39,56-67.3,73.8-13.5,8.7-28,15.9-43.4,20.6-12.7,4.1-26.1,6-39.4,6.4-15.4-.3-30.9-3.3-44.8-10.1-15.6-7.4-28.9-19.5-37.4-34.5-6.9-12.2-10.5-26.2-10-40.2-.2-9.6,1.9-18.9,5.3-27.8,6.5-1.9,12.3-4.4,19-5.3v.2Z"/>
  <path fill="#fe9b00" d="M126.4,349.4c-3.4,8.9-5.6,18.2-5.3,27.8-.5,14,3.1,28,10,40.2,8.6,15,21.8,27.1,37.4,34.5,13.9,6.8,29.5,9.8,44.8,10.1,13.3-.4,26.7-2.3,39.4-6.4,15.3-4.7,29.9-12,43.4-20.6,28.4-17.9,51.5-44.4,67.3-73.8,19.6,11.7,38.4,24,54.6,40.2,20.3,19.7,36.3,43.3,48,69,6.7,14.6,11.3,29.9,15,45.6,2.8,14.3,4.9,28.6,5.2,43.2,0,15.9-5.8,31.6-17.2,42.8-10,10.6-22,18.6-35.1,24.9-18.1,9-37.8,14.5-57.7,18.3-21.1,3.9-42.6,6-64,6.1-21.2.8-43-.7-64.2-2.1-6.6-1.2-13.4-1.8-20.1-2.8-36.4-5.7-73.4-13.6-108.1-25.9-23.1-8-45.2-17.2-66.2-29.8-12.3-7.5-23.9-15.8-34.2-25.8-7.1-7.1-13-15.2-16.2-24.8-4.1-11.4-3.4-24.9-2.7-36.8,1.7-25,7.4-49.3,19.2-71.5,7.3-13.2,16.2-25.4,27.1-36,21.9-22.2,50-36.9,79.5-46.4h.1Z"/>
  <path fill="#953f22" d="M160.6,359c1.3,3.8,3,8,5.7,11.1,2.7,3,6,5.5,9.5,7.5,7.2,4,14.5,7.5,22.5,9.5,13.9,3.8,27.7,3.8,41.9,3.3,17.4-1,34.6-4.5,50.3-12.4-4.8,4.8-10.2,8.9-15.7,12.8-17.8,12.1-38.8,20.8-60.6,21.1-9-.1-18.3-1.6-26.7-5-9.7-3.9-18-10.9-22.6-20.4-4.2-8.6-5.2-18-4.4-27.4h.1Z"/>
</svg>
