<svg xmlns="http://www.w3.org/2000/svg" viewBox="0 0 531.9 556.6">
  <path fill="#2a0534" d="M328.3,0c8.7.6,17.3-.4,26,.1,10.7.6,21.3,0,32-.2,15.7,0,31.3,0,47,.1,7.3.6,15.3-.9,21.8,3.2,7,4.2,10.1,12.4,8.9,20.3-.9,6.7-5.7,11.4-9.4,16.8-16.4,23.5-33.1,46.7-49.1,70.5,6.6.5,13.2.3,19.8,0,20.7,0,41.3,0,62,0,6.1,0,12.5-.2,17.8,3.5,6,4.1,8.9,11.4,7.1,18.5-1.6,7-6.8,10.8-11.5,15.6-24.8,24.2-49.4,48.6-74.3,72.7-6,6.1-12.3,11.7-18.1,18,27,6.4,51.9,22.2,67.9,45.1,9.4,13.3,15.1,27.7,21.3,42.7,5,13.2,9.5,26.7,13.8,40.1,9.2,30.9,17.6,60.7,20.3,93,1,14.7.2,30.5-4.7,44.5-5.7,16.1-16.9,30.5-31.6,39.4-12.2,7.9-27.5,11.6-41.9,12.3-18.6.9-38.1-3.1-53.8-13.5-12.9-8.4-23.4-20-33.2-31.8-6.9-8.5-13.2-17.5-19.7-26.3-3.1-4.2-5.9-8.8-9.2-12.8-.8-.9-2-2.4-3.3-2.4-4.5-.5-9.2-.1-13.8-.2-37,0-74,0-111,0-4.9,0-9.9-.3-14.8.2-1.1,0-2,1.3-2.8,2-3,3.7-5.4,8-8.2,11.8-10.5,15-21.3,30.7-34.1,43.8-8.7,9.3-19.2,17.1-30.8,22.2-22.7,9.3-49.2,9.2-71.9,0-17.4-7.1-31.2-21-39-38-6.8-15.3-8.8-32.9-7.4-49.5.7-13.4,3-26.3,5.6-39.5,3.1-15,6.7-29.8,11.1-44.5,4.6-16.3,9.9-32.4,15.9-48.3,4.8-12.4,9.9-25,16.5-36.6,10.7-18.7,27.1-35,46.5-44.5,25.2-13.2,55.4-16.8,83.2-11.4,10,2,19.5,5.4,28.3,10.6,4.2,2.4,7.6,5.1,12.7,4.9,23.9-.1,47.8.1,71.6-.1,5.6-11.7,11-23.5,16.5-35.3-26.4-.2-52.7,0-79.1,0-5.1,0-10-.8-14.3-3.9-5.1-3.5-8.1-9.1-7.9-15.3-.1-6.9,3.6-11.8,6.5-17.8,5.3-11,11.1-21.7,16.2-32.8,20.7-41.3,41.2-82.7,62-124,3.5-6.8,6.2-14.6,12.9-19.1C311.4-.4,320.3,0,328.3,0Z"/>
  <path fill="#fef159" d="M322.3,15.9c31.7,0,63.4,0,95,0,9.7,0,19.1-.4,28.7.5-6.4,2.7-12.8,3.7-19.7,3.9-28.7,2.6-57.4,5.1-86,7.7-4.8.5-9.9.3-14.6,1.6-2.2.6-3.6,3.4-4.6,5.2-17.2,35-34.9,69.8-52.2,104.8-7,13.7-13.6,27.6-20.7,41.3-1.9,3.8-3,7.8-4.5,11.7-1.9,2.9-4.4,5.5-6.6,8.2-4.4.1-8.8-.2-13.1-.8,1.7-8.4,6.2-14.9,9.9-22.5,25.9-52.1,51.9-104.1,77.8-156.2.9-1.6,2-3.4,3.5-4.4,2.1-1,4.9-1,7.2-1.1Z"/>
  <path fill="#fe9c04" d="M446,16.5c.4,1.8,1.1,3.8.2,5.5-1.6,3.5-4.2,6.6-6.4,9.7-14.9,20.8-29.3,42-44.3,62.7-7.5,10.9-15.5,21.6-22.6,32.8-5.9,0-11.8,0-17.6-.2,2.2-3.7,4.5-7.3,7-10.8,10.3-14.4,19.8-29.6,29.8-44.2,11.4-17.2,22.7-34.5,34.2-51.6,6.9-.3,13.3-1.2,19.7-3.9Z"/>
  <path fill="#fed101" d="M426.3,20.4c-11.5,17.2-22.7,34.4-34.2,51.6-10.1,14.6-19.5,29.8-29.8,44.2-2.5,3.5-4.8,7.1-7,10.8,5.9.3,11.8.2,17.6.2,40.8.4,81.6-.3,122.4.4-.2.7-.4,1.3-.6,2-6.4-2.9-14.4-2.5-21.2-1.2-5.3,1.9-9.1,8.1-13.2,11.8-40.6,40-80.9,80.5-121.4,120.6-12.1,11.8-23.7,24.3-36.5,35.4,1.6-4,3.3-7.9,5.2-11.7,12.5-26.2,24.5-52.8,37-79,2.8-5.6,5.5-11.2,7.8-17.1-28.7,1.1-57.4,2.8-86.1,3.9-7.6.3-15.1.8-22.7.4,1.5-3.9,2.6-7.9,4.5-11.7,7.1-13.6,13.8-27.6,20.7-41.3,17.3-35,35-69.8,52.2-104.8,1.1-1.8,2.4-4.6,4.6-5.2,4.7-1.3,9.8-1.1,14.6-1.6,28.7-2.7,57.4-5.2,86-7.7Z"/>
  <path fill="#fe9c04" d="M473.5,128.4c6.8-1.2,14.8-1.7,21.2,1.2-2.4,3.4-5.3,5.9-8.3,8.8-56.4,55.3-113,110.3-169.4,165.6-15.1,14.9-30.4,29.7-45.2,44.8-2.1,2.1-4.8,2.8-7.5,3.6,1.8-6.9,5.2-12.7,8.2-19,17.6-37.7,35.2-75.4,53-113,3.2-6.4,6.4-12.7,8.8-19.4-6-.3-12.1-.3-18.1-.2-26.4,0-52.8,0-79.3.1,2.2-2.7,4.6-5.3,6.6-8.2,7.6.4,15.1,0,22.7-.4,28.7-1.2,57.4-2.8,86.1-3.9-2.3,5.8-5,11.5-7.8,17.1-12.5,26.2-24.5,52.8-37,79-1.9,3.8-3.6,7.7-5.2,11.7,12.8-11.1,24.4-23.6,36.5-35.4,40.6-40.1,80.8-80.6,121.4-120.6,4.1-3.8,8-9.9,13.2-11.8Z"/>
  <path fill="#e6caeb" d="M189,258c-.1,2.1,0,4.3-.6,6.3-1.5,1.8-4.9,1.8-7,2.1-16.6-4.2-34.5-3.8-51.1-.1-15.6,3.5-30.2,11-41.3,22.7-9.1,9.3-15.6,20.4-20.4,32.5-9,23-16.9,46.5-23.8,70.2-4.2,14.3-7.6,28.9-10.5,43.6-1.2,6.6-2.5,13.4-2.9,20.1-4.5-5.5-8.8-10.2-10.5-17.3,3.8-21,8.9-41.8,15.1-62.2,6.9-21.7,13.9-43.2,22.7-64.3,5.5-12.5,13.1-24.5,23-34,14.9-14.7,36.1-23.2,56.8-25.3,16.6-1.9,35-.9,50.6,5.8Z"/>
  <path fill="#6c1f84" d="M395.4,253.1c3.7-.1,7.4.8,11,1.6-6.2,1.3-9.1,5.8-13.7,9.8-8.5,7.5-16.5,15.5-25,23-12.8,11.2-25.1,22.9-37.2,34.8-7.9,7.1-15.6,14.4-23.2,21.8-5.4,5.3-11.3,10-16.6,15.4-2.1,2-4.4,4.5-7.2,5.4-2.6.9-5.4,1.1-8,1.7,22.5-21.6,45-43.3,67.5-64.8,15.2-14.6,30.9-29.2,45.7-44.3,1.8-1.7,4.2-4.3,6.8-4.3Z"/>
  <path fill="#18c584" d="M406.3,254.7c2.4.6,4.8,1.4,7.1,2.2,7.7,8.4,15.9,16.2,23.4,24.8,10.8,11,19.5,23.8,24.5,38.4,7,20.3,13.6,40.8,19.6,61.4,4.7,17.6,9.2,35.4,12.5,53.4,2.7,13.6,3.4,27.4,2.8,41.3-.5,9.8-2.7,20.3-8.7,28.3-4.3,5.9-10.3,10.2-17.2,12.5-12.6,4.2-26.7,4-39.1-.9-9.6-3.6-17.8-9.7-24.9-17-11.2-11.7-21.2-24.8-31.9-37.1-5.7-6.4-10.4-13.8-17.8-18.2-8-5-17.1-6.7-26.4-6.6-37,.2-74,0-111,0-9.3,0-18.7-.3-28,.2-11.7.6-23.3,5.9-30.6,15.2-7.5,9.5-15.3,18.7-23.2,27.8-7.9,9.2-15.2,18.5-24.7,26.3-11.2,9.1-25.9,14.3-40.4,13.3-7.9-.5-16.5-2.2-23.2-6.7-3.8-2.5-7.3-5.6-11-8.3,5.2,11.9,16,20.5,27.6,25.8,15.9,7.2,34.6,6.1,49.9-2.1,3.2-1.8,6.6-3.2,10-4.8-8.4,7.1-18.1,11.7-29,13.5-18.5,2.8-37.9.9-53.6-10-12-8.2-19.9-20.8-23.1-34.9-3.1-14.4-3-29-.9-43.6-.9,12.9-.9,26.5,2.3,39,1,3.8,2.3,8.2,4.8,11.3,1.5,2.1,4.8,2.5,7.1,3.4,1.9-8.7-1.9-15.9-2.1-24.5-.3-7.6-.1-15.3.2-22.9.4-6.7,1.7-13.5,2.9-20.1,2.8-14.7,6.3-29.2,10.5-43.6,7-23.7,14.8-47.2,23.8-70.2,4.8-12.1,11.3-23.2,20.4-32.5,11.1-11.7,25.6-19.2,41.3-22.7,16.6-3.6,34.5-4,51.1.1,5.9,1.8,11.6,4.6,16.9,7.9,3.7,2.3,7.5,4.9,11.6,6.4,4,1.4,8.3,1.5,12.4,1.6,18.7,0,37.5-.3,56.2.1-7.9,17.3-16.2,34.5-24.2,51.8-3.1,6.7-7.1,13.3-5.9,21,.8,6.1,5.4,11.1,11.3,12.7,5.2,1.5,10.6,0,15.6-1.3,2.7-.5,5.5-.8,8-1.7,2.8-.9,5.1-3.5,7.2-5.4,5.3-5.4,11.2-10.1,16.6-15.4,7.6-7.4,15.3-14.7,23.2-21.8,12.1-11.9,24.5-23.6,37.2-34.8,8.5-7.5,16.6-15.5,25-23,4.5-3.9,7.4-8.5,13.7-9.8Z"/>
  <path fill="#038b85" d="M413.4,256.9c4.1,1.3,8.2,2.3,12.1,4,12.7,5.2,23.8,15,32.6,25.4,9.5,12.3,16.2,27.1,21.4,41.7,5,13.8,10,27.6,14.4,41.6,7.9,25.2,14.9,50,18.7,76.3,1.8,12.4,2.8,24.7,1.6,37.2-.9,9.6-3.7,18.9-8.8,27.1-6.8,11.2-16.7,19.4-29,24-12.3,4.9-24.9,5.1-38,4.3-15.1-1.2-29.2-8.7-39.9-19.3-15-14.6-27.3-32.4-39.6-49.4-4-5.5-7.9-12.8-14.2-15.9-6.2-3.1-14.6-2.2-21.4-2.2-39.3,0-78.7,0-118,0-7.4,0-15.9-.9-22.5,3.1-6.3,3.7-10.3,11.7-14.5,17.5-10,14.4-20.2,29.1-31.9,42.1-3.2,3.6-6.8,6.9-10.7,9.6-3.4,1.5-6.7,3-10,4.8-15.3,8.2-34,9.4-49.9,2.1-11.6-5.4-22.4-13.9-27.6-25.8,3.7,2.7,7.2,5.8,11,8.3,6.6,4.5,15.3,6.2,23.2,6.7,14.5,1,29.2-4.2,40.4-13.3,9.5-7.8,16.8-17.1,24.7-26.3,7.9-9.1,15.7-18.3,23.2-27.8,7.3-9.3,18.9-14.6,30.6-15.2,9.3-.5,18.7,0,28-.2,37-.1,74,.1,111,0,9.3,0,18.4,1.7,26.4,6.6,7.4,4.5,12.2,11.8,17.8,18.2,10.7,12.3,20.6,25.4,31.9,37.1,7.1,7.4,15.3,13.4,24.9,17,12.4,4.9,26.5,5.1,39.1.9,7-2.3,12.9-6.6,17.2-12.5,6-8,8.1-18.5,8.7-28.3.6-13.8-.1-27.7-2.8-41.3-3.3-18-7.9-35.7-12.5-53.4-6-20.6-12.6-41.1-19.6-61.4-5.1-14.6-13.7-27.4-24.5-38.4-7.5-8.6-15.7-16.4-23.4-24.8Z"/>
  <path fill="#ba64ca" d="M189,258c6.1,2.4,11.5,6,16.9,9.7,3.2,2.2,6.7,2.3,10.4,2.3,16-.2,32,0,48-.1,6.5,0,12.9,0,19.4.3-1.6,4.1-3.4,8.1-5.2,12.1-18.7-.4-37.5,0-56.2-.1-4.1,0-8.5-.2-12.4-1.6-4.1-1.4-7.9-4.1-11.6-6.4-5.3-3.2-10.9-6.1-16.9-7.9,2.1-.3,5.5-.3,7-2.1.6-2,.5-4.2.6-6.3Z"/>
  <path fill="#2a0534" d="M392.7,287.7c13.3-2.8,27.5,2.5,35.3,13.7,6.6,9.3,7.9,21.7,3.8,32.3-3.4,8.6-10.3,15.7-19,19-12,4.9-26.4,2.7-36-6-8.9-7.8-13-20.2-10.8-31.7,2.5-13.4,13.3-24.6,26.7-27.2Z"/>
  <path fill="#2a0534" d="M142.3,291c9.3.1,17.6-1.2,26.2,3.3,3.5,10.9,1.5,20.5,2,31.8,1.7,0,3.3.1,5,.2,9.8.5,18.6-1.1,28,2.3,1.8,3.4,3.4,6.6,3.5,10.6.2,5.7,0,11.4,0,17.1-.1,4.4-.4,8.6-3.9,11.7-3.5,3.2-8.2,3.2-12.7,3.2-6.6-.1-13.2-.2-19.8.2-.1,6.6,0,13.3,0,19.9-.1,4.3-.5,8.4-3.8,11.4-3.5,3.3-7.9,3.3-12.4,3.6-5.6,0-11.3.4-17-.2-3.8-.4-7.2-2.4-9.1-5.7-2-3.4-2-8.2-2-12,.2-5.7.3-11.3.1-17-8.4-.6-16.7.4-25.1-.2-5-.4-7.7-3.5-10.9-6.8,0-7,0-14-.2-21,0-4-.1-9.3,2.6-12.5,2.9-3.6,7.1-4.2,11.5-4.4,7.4,0,14.8.3,22.2,0,.4-6.7.2-13.3,0-20,0-4.1.1-8.3,3.2-11.5,3.3-3.5,8-3.5,12.5-3.7Z"/>
  <path fill="#ba64ca" d="M175.1,302.4c1.8,7.6.6,16.1.3,23.8-1.7,0-3.3-.1-5-.2-.5-11.3,1.6-20.9-2-31.8,3.3,1.9,5.7,4.4,6.6,8.2Z"/>
  <path fill="#fef159" d="M410,303.3c-4.3,1.5-8.7,2.6-13.1,3.7-5,1.2-9,5-11,9.7-1.7,4.2-3.2,8.4-5.6,12.2-3.3-7.5-1.5-15.9,3.9-21.9,6.4-7.2,17.6-8.7,25.8-3.8Z"/>
  <path fill="#fed101" d="M410,303.3c11.2,5.7,13.9,21.2,6.3,30.9-5.8,8-17.1,9.7-25.8,5.8-4.8-2.2-8.1-6.3-10.2-11,2.5-3.8,3.9-8,5.6-12.2,1.9-4.8,5.9-8.5,11-9.7,4.4-1.1,8.8-2.2,13.1-3.7Z"/>
  <path fill="#ba64ca" d="M211.2,337.2c1.8,6.2,1.1,13.5,1.2,20-.1,4.7.2,10.7-2.2,14.9-2.5,4.3-7,6.5-11.9,6.8-7.3.4-14.7-.1-22.1.4-.5,6-.5,12-.6,18-.2,4.6-.6,8.9-4.1,12.2-3.3,3.4-7.6,4.4-12.2,4.5-6.3.1-12.7.3-19-.2-4.4-.3-8.4-2-11.3-5.4-2.9-3.5-3.7-7.7-3.8-12.2,0-5.6.2-11.3,0-16.9-5.7-.3-11.3-.4-17-.4-4.3,0-8.2-.2-11.7-3-3.8-2.9-5.8-7-6.1-11.8,3.2,3.3,5.9,6.5,10.9,6.8,8.3.6,16.7-.4,25.1.2.1,5.7,0,11.3-.1,17,0,3.9,0,8.6,2,12,1.9,3.4,5.4,5.3,9.1,5.7,5.6.6,11.3.3,17,.2,4.6-.2,8.9-.3,12.4-3.6,3.3-3.1,3.7-7.2,3.8-11.4,0-6.6-.2-13.3,0-19.9,6.6-.4,13.2-.3,19.8-.2,4.5,0,9.2,0,12.7-3.2,3.5-3.1,3.8-7.3,3.9-11.7,0-5.7.2-11.4,0-17.1,0-3.9-1.8-7.2-3.5-10.6,3.9,1.7,6.6,4.5,7.8,8.7Z"/>
  <path fill="#2a0534" d="M345.7,340.6c9.4-1.1,19.1,1.7,26.3,7.9,10,8.4,14,22.5,10.7,35.1-1.9,7.3-6.7,13.8-12.6,18.3-10.3,7.8-25,8.9-36.5,3-11.7-6-19.3-18.5-18.4-31.8.6-16.5,13.9-31.2,30.6-32.5Z"/>
  <path fill="#fef159" d="M359.2,356.5c-3.6,1.8-7.1,3-11.1,3.8-6.2,1.3-11.6,5.9-13.5,12.1-1.1,3.6-2.3,6.8-5,9.6-2.9-8.3-.4-17.5,6.2-23.2,6.6-5.5,15.8-6.4,23.4-2.2Z"/>
  <path fill="#2a0534" d="M429.7,355.7c5-1,10.2-1.1,15.2,0,13.7,2.8,24.8,14.7,26.5,28.6,1.7,12.2-3.5,24.5-13.2,31.9-9.8,7.6-23.7,9.2-35,4.2-11.9-5.2-20-17-20.3-30.1-.7-16,11-31.4,26.8-34.6Z"/>
  <path fill="#fe9c04" d="M359.2,356.5c6.6,2.9,10.7,9.6,11.1,16.8.8,10.1-6.2,19.9-16.2,21.7-10.2,2.2-21-2.9-24.4-13,2.7-2.8,3.9-6,5-9.6,1.9-6.1,7.2-10.7,13.5-12.1,4-.8,7.4-2,11.1-3.8Z"/>
  <path fill="#fef159" d="M447,370.7c-5.8,4.4-12.7,2.4-18.3,6.9-5.4,3.9-7.1,11.9-9.2,17.9-.8,0-1.6,0-2.3,0-.7-3.3-1-6.8-.5-10.1,1.1-7.4,6.6-13.9,13.7-16.2,5.6-1.7,11.5-1.1,16.7,1.5Z"/>
  <path fill="#fe9c04" d="M447,370.7c10.6,5.1,14.2,19.5,8.2,29.4-5.9,9.7-19.8,12.6-29.3,6.6-4.2-2.6-6.8-6.6-8.8-11.1.8,0,1.5,0,2.3,0,2.2-6,3.8-14,9.2-17.9,5.6-4.5,12.5-2.5,18.3-6.9Z"/>
  <path fill="#ba64ca" d="M20.9,438.1c1.7,7.1,6.1,11.8,10.5,17.3-.3,7.6-.5,15.3-.2,22.9.2,8.6,3.9,15.7,2.1,24.5-2.3-.9-5.6-1.3-7.1-3.4-2.5-3.1-3.8-7.5-4.8-11.3-3.2-12.6-3.2-26.2-2.3-39,.4-3.7,1.1-7.3,1.7-10.9Z"/>
</svg>
